<?xml version="1.0" encoding="UTF-8" standalone="no"?>
<!-- Created with Inkscape (http://www.inkscape.org/) -->

<svg xmlns:dc="http://purl.org/dc/elements/1.1/" xmlns:cc="http://creativecommons.org/ns#" xmlns:rdf="http://www.w3.org/1999/02/22-rdf-syntax-ns#" xmlns:svg="http://www.w3.org/2000/svg" xmlns="http://www.w3.org/2000/svg" xmlns:sodipodi="http://sodipodi.sourceforge.net/DTD/sodipodi-0.dtd" xmlns:inkscape="http://www.inkscape.org/namespaces/inkscape" version="1.1" width="250.01285" height="249.18723" id="svg4353" inkscape:version="0.48.4 r9939" sodipodi:docname="back2.svg">
  <sodipodi:namedview pagecolor="#ffffff" bordercolor="#666666" borderopacity="1" objecttolerance="10" gridtolerance="10" guidetolerance="10" inkscape:pageopacity="0" inkscape:pageshadow="2" inkscape:window-width="1680" inkscape:window-height="991" id="namedview28" showgrid="false" fit-margin-top="0" fit-margin-left="0" fit-margin-right="0" fit-margin-bottom="0" inkscape:zoom="3.1101113" inkscape:cx="125.00642" inkscape:cy="124.59361" inkscape:window-x="0" inkscape:window-y="0" inkscape:window-maximized="1" inkscape:current-layer="svg4353" />
  <defs id="defs4355">
    <filter color-interpolation-filters="sRGB" id="filter3801-5-7">
      <feGaussianBlur stdDeviation="2.8378378" id="feGaussianBlur3803-9-4" />
    </filter>
    <filter color-interpolation-filters="sRGB" id="filter3813-3-8">
      <feGaussianBlur stdDeviation="0.70945946" id="feGaussianBlur3815-5-5" />
    </filter>
    <filter color-interpolation-filters="sRGB" id="filter3801-6-7-8">
      <feGaussianBlur stdDeviation="2.8378378" id="feGaussianBlur3803-7-0-2" />
    </filter>
    <filter color-interpolation-filters="sRGB" id="filter3874-5-8-6">
      <feGaussianBlur stdDeviation="0.43693231" id="feGaussianBlur3876-4-1-0" />
    </filter>
    <filter color-interpolation-filters="sRGB" id="filter3801-5-7-3">
      <feGaussianBlur stdDeviation="2.8378378" id="feGaussianBlur3803-9-4-6" />
    </filter>
    <filter color-interpolation-filters="sRGB" id="filter3813-3-8-7">
      <feGaussianBlur stdDeviation="0.70945946" id="feGaussianBlur3815-5-5-5" />
    </filter>
    <filter color-interpolation-filters="sRGB" id="filter3801-6-7-8-3">
      <feGaussianBlur stdDeviation="2.8378378" id="feGaussianBlur3803-7-0-2-5" />
    </filter>
    <filter color-interpolation-filters="sRGB" id="filter3874-5-8-6-6">
      <feGaussianBlur stdDeviation="0.43693231" id="feGaussianBlur3876-4-1-0-2" />
    </filter>
  </defs>
  <metadata id="metadata4358">
    <rdf:RDF>
      <cc:Work rdf:about="">
        <dc:format>image/svg+xml</dc:format>
        <dc:type rdf:resource="http://purl.org/dc/dcmitype/StillImage" />
        <dc:title></dc:title>
      </cc:Work>
    </rdf:RDF>
  </metadata>
  <g id="g3031">
    <rect style="opacity:0.503;fill:black;fill-opacity:1;stroke:none;filter:url(#filter3801-5-7-3)" id="rect2985-9-6" transform="matrix(2.3848595,0,0,1.5398359,-449.25081,-217.12139)" y="166.01927" x="206.39877" ry="10.334008" rx="6.4536452" height="130" width="80" />
    <rect transform="matrix(2.5917565,0,0,2.6327824,-4.1722025,-0.04224889)" width="84" height="84" rx="5.9384584" ry="6.0440531" x="3.8174565" y="2.2149863" id="rect2985-3-7-4" style="fill:#00bfff;fill-opacity:1;stroke:black;stroke-opacity:1;filter:url(#filter3813-3-8-7)" />
    <rect width="80" height="130" rx="6.4909925" ry="10.313722" x="206.39877" y="166.01927" transform="matrix(2.3711377,0,0,1.5428646,-470.8438,-238.14421)" id="rect2985-5-8-6" style="opacity:0.23300021;fill:black;fill-opacity:1;stroke:none;filter:url(#filter3801-6-7-8-3)" />
    <g transform="matrix(2.2575298,0,0,2.2932651,-109.01926,-361.81685)" id="g4874">
      <path inkscape:connector-curvature="0" d="m 109.77396,250.23638 c -0.32154,-0.52027 -1.56477,-0.71776 -4.30076,-1.13498 c -11.658258,-1.55076 0.44077,-7.20124 4.36078,-10.64741 c -17.361768,9.63118 -17.327568,-22.8757 -22.370908,-31.40727 c 1.15308,-0.71264 4.8985,-8.24144 6.01417,-12.08929 c 0.47218,-1.62851 1.39723,-4.11484 2.05565,-5.52518 c 0.65843,-1.41035 1.99221,-4.93171 2.96395,-7.82528 c 1.874538,-5.58178 4.538418,-10.6437 6.018098,-11.4356 c 1.19544,-0.63977 3.8923,0.16089 4.77194,1.41674 c 0.9583,1.36817 0.80845,2.59486 -0.78239,6.40424 c -1.88818,4.5214 -2.72106,6.71685 -3.68989,9.72652 c -0.99122,3.0792 -3.39348,13.45709 -3.16736,13.6832 c 0.0911,0.0911 0.89893,-0.74692 1.7953,-1.86213 c 4.52416,-5.62871 5.73171,-6.32336 8.77886,-5.05018 c 1.77217,0.74046 2.79112,2.16644 2.79112,3.90609 c 0,1.14932 0.12707,1.31351 0.8669,1.12004 c 1.51136,-0.39523 4.12047,1.11067 4.9439,2.85348 c 0.55887,1.18286 1.106,1.67039 2.18543,1.94733 c 3.06247,0.78574 4.04093,4.67701 2.19197,8.71735 c -1.09781,2.39894 -2.5525,8.72865 -2.56527,11.1621 c -0.0189,3.596 -2.8812,9.54014 -6.5618,13.62671 c -3.12892,3.47405 -4.09029,5.26764 -5.22503,9.74811 c -0.43516,1.71819 -0.91873,2.9176 -1.07462,2.66538 z m 10.54984,-46.95515 c -0.39568,-1.24667 -1.67253,-2.20227 -3.29427,-2.46545 c 12.9418,0.14851 -14.0403,14.84825 3.29427,2.46545 z m -33.026528,38.6157 c 0.24525,-3.16906 0.19187,-3.49422 -0.79858,-4.86436 c -1.72083,-2.38052 -2.66363,-4.29512 -3.43707,-6.97986 c -0.95904,-3.32903 -2.3759,-6.06958 -3.85791,-7.46218 c -0.66147,-0.62154 -2.77907,-2.05694 -4.70578,-3.18978 c -3.07564,-1.80836 -3.70181,-2.39005 -5.13128,-4.76673 c -1.27985,-2.12789 -2.295,-3.16593 -4.74515,-4.85212 c -4.36728,-3.00554 -4.40664,-4.42085 -0.19128,-6.87844 c 2.64537,-1.54227 8.10904,0.6134 9.41263,3.71374 c 0.36671,0.87216 0.81715,1.24138 1.51443,1.24138 c 0.54585,0 2.56156,0.58165 4.50136,1.22809 c 3.91237,1.3038 9.2495,-1.38849 10.06844,-2.28852 c 23.363518,13.60955 -20.79509,19.7244 -20.13634,6.65308 c 18.32473,-14.73554 52.319288,20.44934 35.285358,35.0262 c -0.16038,1.71142 -17.407288,-4.09584 -17.632388,-3.77243 c -0.26966,0.38746 -0.31962,-0.57032 -0.14644,-2.80805 z" id="path4302-0" style="fill:#fea;fill-opacity:1;stroke:none" />
      <path inkscape:connector-curvature="0" d="m 110.39055,250.82392 c -0.32832,-0.53124 -0.0556,-4.22305 0.39739,-5.37957 c 0.2636,-0.67296 0.16148,-0.71152 -0.85797,-0.32393 c -1.56904,0.59656 -1.96476,0.55468 -1.96476,-0.20789 c 0,-0.42211 0.42274,-0.64786 1.21317,-0.64786 c 1.34532,0 3.07125,-1.04241 2.56467,-1.54899 c -0.17814,-0.17814 -0.83892,-0.0483 -1.46839,0.28862 c -1.42439,0.76231 -4.67113,0.79907 -5.40896,0.0612 c -0.44709,-0.4471 -0.1451,-0.53723 1.59805,-0.47696 c 4.59296,0.15881 10.41473,-4.41093 13.72805,-10.7757 c 1.8365,-3.52786 3.11032,-8.73366 1.96364,-8.02497 c -0.34099,0.21074 -0.41669,-0.016 -0.24385,-0.73035 c 0.41392,-1.7106 2.7555,-9.08858 3.6186,-11.40168 c 1.16335,-3.11776 0.87586,-5.22798 -0.85612,-6.28404 c -0.75694,-0.46154 -1.61702,-0.83989 -1.9113,-0.84077 c -0.29429,-8.7e-4 -1.31039,1.54044 -2.25802,3.42517 c -0.94762,1.88473 -2.60183,4.5058 -3.67601,5.82461 c -1.07418,1.3188 -1.95305,2.52838 -1.95305,2.68796 c 0,0.15957 -0.79917,1.326 -1.77593,2.59206 c -1.98673,2.57517 -1.98113,3.60857 0.0196,3.60857 c 1.65048,0 2.68119,-1.51296 1.32414,-1.94367 c -0.47492,-0.15073 -0.86349,-0.45532 -0.86349,-0.67686 c 0,-0.51819 0.29215,-0.50798 1.328,0.0464 c 0.62111,0.3324 0.76998,0.72539 0.57264,1.51166 c -0.1939,0.77258 -0.0911,1.06248 0.37677,1.06248 c 0.89565,0 3.33735,-2.58794 3.33735,-3.53723 c 0,-0.91628 -0.16756,-0.95422 -1.24436,-0.28174 c -1.13296,0.70754 -2.1029,0.19388 -2.1029,-1.11366 c 0,-1.26902 0.0464,-1.29466 1.12486,-0.62116 c 0.48026,0.29993 1.41583,0.37531 2.38993,0.19257 c 1.33009,-0.24953 1.85204,-0.69315 3.08706,-2.6238 c 1.38268,-2.16148 2.36017,-3.2343 2.36017,-2.59035 c 0,0.69175 -5.13196,8.75258 -6.48841,10.19143 c -1.71492,1.8191 -3.17937,2.33863 -5.41168,1.91984 c -1.03891,-0.1949 -1.68293,-0.62527 -2.01005,-1.34325 c -0.26475,-0.58105 -0.84853,-1.05646 -1.29729,-1.05646 c -1.16393,0 -3.21212,-1.13955 -3.52808,-1.96292 c -0.14756,-0.38453 -0.26829,-1.26862 -0.26829,-1.96465 c 0,-1.22198 -0.0561,-1.25652 -1.63073,-1.00472 c -2.28096,0.36474 -3.56684,-0.73543 -3.85578,-3.29893 c -0.19097,-1.6943 0.0825,-2.56213 2.20233,-6.98857 c 1.3312,-2.77973 2.41457,-5.49713 2.40748,-6.03867 c -0.0113,-0.86565 -0.21658,-0.74979 -1.69874,0.95895 c -1.29493,1.49288 -1.80502,1.82611 -2.19969,1.43703 c -0.994,-0.97994 3.86136,-18.70926 7.01353,-25.60985 c 1.87012,-4.09397 1.95528,-4.92941 0.63688,-6.24782 c -0.69971,-0.69971 -1.5885,-1.10839 -2.41047,-1.10839 c -2.05698,0 -3.73312,2.92818 -7.169668,12.52523 c -0.63797,1.78161 -1.55388,4.21107 -2.03537,5.39881 c -0.48149,1.18774 -1.61304,4.25542 -2.51455,6.81707 c -0.9015,2.56165 -2.32991,5.91431 -3.17422,7.45035 c -0.84432,1.53604 -1.41138,2.79281 -1.26013,2.79281 c 0.15124,0 0.92499,-0.49579 1.71944,-1.10174 c 0.79445,-0.60596 1.44446,-1.00225 1.44446,-0.88064 c 0,0.75871 -5.51915,4.81338 -5.95653,4.376 c -0.15459,-0.15459 -0.0262,-0.4386 0.28536,-0.63114 c 1.17739,-0.72767 5.00177,-8.41518 6.14096,-12.34414 c 0.48213,-1.66284 1.42668,-4.20158 2.09898,-5.64165 c 0.67231,-1.44008 2.03421,-5.03568 3.02643,-7.99024 c 1.914058,-5.69945 4.634088,-10.86808 6.144958,-11.67667 c 1.22064,-0.65326 3.97436,0.16428 4.87254,1.44661 c 0.9785,1.39701 0.82549,2.64956 -0.79889,6.53924 c -1.92798,4.61671 -2.77842,6.85844 -3.76767,9.93156 c -1.01211,3.14411 -3.46501,13.74077 -3.23413,13.97165 c 0.093,0.093 0.91788,-0.76267 1.83315,-1.90139 c 4.61953,-5.74736 5.85253,-6.45666 8.96392,-5.15664 c 1.80953,0.75607 2.84996,2.21211 2.84996,3.98843 c 0,1.17355 0.12975,1.3412 0.88517,1.14365 c 1.54322,-0.40356 4.20733,1.13409 5.04812,2.91364 c 0.57065,1.20779 1.12932,1.7056 2.2315,1.98838 c 3.12703,0.8023 4.12611,4.7756 2.23818,8.90111 c -1.12095,2.44951 -2.60631,8.91265 -2.61935,11.3974 c -0.0193,3.67181 -2.94194,9.74125 -6.70012,13.91397 c -3.19488,3.54728 -4.17652,5.37868 -5.33518,9.9536 c -0.44433,1.75441 -0.9381,2.97911 -1.09727,2.72157 z m 1.56414,-31.71769 c 0.72199,-0.77203 1.62025,-1.88958 1.99612,-2.48345 c 0.37587,-0.59387 1.39365,-2.05155 2.26173,-3.23928 c 2.24758,-3.07523 5.27155,-9.49219 4.95024,-10.50456 c -0.40402,-1.27295 -1.70779,-2.2487 -3.36371,-2.51742 c -1.82727,-0.29653 -2.22891,0.1891 -5.55787,6.72004 c -2.15576,4.22929 -2.24289,4.52585 -1.64352,5.59371 c 0.34811,0.6202 1.0678,1.34444 1.59931,1.60943 c 1.55717,0.77633 1.70043,1.18697 0.30322,0.86916 c -0.71264,-0.16209 -1.74904,-0.8211 -2.30311,-1.46445 l -1.00739,-1.16972 l 0.30265,1.07976 c 0.47047,1.67851 1.50802,2.59143 2.94522,2.59143 c 0.94034,0 1.18244,0.13271 0.84948,0.46567 c -0.95421,0.95422 -2.90079,0.24987 -3.99474,-1.44546 c -1.16066,-1.7987 -1.44853,-1.65446 -2.2134,1.109 c -0.55366,2.0004 -0.20819,3.25831 1.03225,3.75852 c 1.66343,0.67078 2.50627,0.45755 3.84352,-0.97238 z m -4.42138,-1.0797 c 0,-1.36551 0.72952,-1.57208 2.00599,-0.56801 c 0.78835,0.62012 0.92645,0.89188 0.45322,0.89188 c -0.37434,0 -0.81893,-0.2238 -0.98798,-0.49734 c -0.21298,-0.3446 -0.48608,-0.25293 -0.8893,0.29851 c -0.55485,0.75881 -0.58193,0.75299 -0.58193,-0.12504 z m 6.39759,-4.72212 c 0.31178,-0.12476 0.6843,-0.10942 0.82781,0.0341 c 0.14352,0.14351 -0.11157,0.2456 -0.56687,0.22684 c -0.50315,-0.0207 -0.60549,-0.12306 -0.26094,-0.26094 z m 4.508,-10.59781 c -0.9747,-0.47008 -1.32194,-1.20048 -0.57073,-1.20048 c 0.40014,0 1.75847,1.19152 1.75847,1.54252 c 0,0.22991 -0.004,0.22861 -1.18774,-0.34204 z m -12.72684,12.3783 c 0.5293,-0.37075 1.25779,-1.24535 1.61886,-1.94357 l 0.65648,-1.2695 l -1.54825,0 c -0.92218,0 -1.44031,-0.17465 -1.28131,-0.4319 c 0.14681,-0.23755 0.69276,-0.43488 1.21322,-0.43852 c 0.52047,-0.003 1.23783,-0.20076 1.59415,-0.43804 c 0.45499,-0.30298 0.10138,-0.34887 -1.18773,-0.15413 c -1.12065,0.16928 -1.8356,0.10906 -1.8356,-0.15462 c 0,-0.23755 0.80611,-0.56081 1.79136,-0.71836 c 2.24018,-0.35822 4.17933,-2.34505 6.22673,-6.37985 c 1.9711,-3.88444 2.29975,-6.0172 1.11048,-7.20647 c -1.07916,-1.07917 -2.69863,-1.54413 -4.12838,-1.18529 c -1.53406,0.38503 -3.70447,2.36388 -3.70447,3.37751 c 0,0.76864 0.0897,0.80429 0.71809,0.28554 c 0.39495,-0.32602 0.62918,-0.39841 0.5205,-0.16086 c -0.10868,0.23754 -0.83719,1.74025 -1.61891,3.33934 c -1.70101,3.47959 -2.65699,6.87436 -2.3124,8.21155 c 0.22947,0.89043 0.18482,0.91995 -0.51841,0.34279 c -0.68427,-0.56162 -0.83606,-0.54052 -1.37061,0.19052 c -0.33062,0.45215 -0.60112,1.55615 -0.60112,2.45335 c 0,1.33543 0.21541,1.74814 1.18774,2.27564 c 1.53411,0.83227 2.28679,0.83332 3.46958,0.005 z m -3.79351,-1.67692 c 0,-0.6824 0.93295,-1.96699 1.41889,-1.95369 c 0.67083,0.0184 2.66261,1.66286 2.3693,1.95617 c -0.12173,0.12173 -0.72658,-0.009 -1.34411,-0.29024 c -0.87997,-0.40095 -1.26566,-0.393 -1.78343,0.0367 c -0.36336,0.30156 -0.66065,0.41454 -0.66065,0.25106 z m 8.82862,-16.85503 c -0.82194,-0.62168 -0.82036,-0.63439 0.0805,-0.64785 c 0.50539,-0.008 1.16085,0.2778 1.45657,0.63412 c 0.7339,0.88429 -0.37304,0.89418 -1.53709,0.0137 z m -23.307128,45.75572 c 0.25042,-3.23586 0.19591,-3.56788 -0.81542,-4.9669 c -1.7571,-2.4307 -2.71978,-4.38566 -3.50952,-7.127 c -0.97926,-3.39921 -2.42598,-6.19753 -3.93924,-7.61948 c -0.67541,-0.63465 -2.83765,-2.10031 -4.80498,-3.25703 c -3.14047,-1.84648 -3.77984,-2.44043 -5.23945,-4.86721 c -1.30682,-2.17275 -2.34337,-3.23267 -4.84517,-4.9544 c -4.45935,-3.0689 -4.49954,-4.51405 -0.19532,-7.02344 c 2.70114,-1.57479 8.27998,0.62633 9.61105,3.79202 c 0.37445,0.89055 0.83438,1.26755 1.54636,1.26755 c 0.55736,0 2.62568,0.56429 4.59625,1.25398 c 3.87795,1.35726 3.51005,1.38004 8.90086,-0.5511 c 3.56426,-1.27681 2.71924,-0.39775 -1.44395,1.50212 c -3.21089,1.46529 -4.46509,1.54246 -7.03126,0.43264 c -3.61787,-1.56466 -3.83407,-1.56748 -3.83407,-0.0498 c 0,1.64621 -0.65422,1.37546 -1.01318,-0.4193 c -0.42588,-2.12944 -1.15394,-1.53524 -0.9151,0.74684 l 0.21472,2.05155 l -0.8388,-1.72762 c -0.46135,-0.95019 -0.85323,-2.25424 -0.87084,-2.89788 c -0.0578,-2.11301 -3.63234,-4.66045 -6.53943,-4.66045 c -1.35345,0 -4.10223,1.07402 -4.53311,1.77121 c -0.45692,0.73931 0.69783,2.03517 3.27736,3.67787 c 2.0937,1.33331 2.98522,2.2728 4.34666,4.58049 c 1.4545,2.46548 2.15423,3.16545 4.64127,4.64298 c 1.6107,0.9569 3.13544,1.73982 3.38831,1.73982 c 0.85106,0 4.02193,3.8546 5.05755,6.14809 c 0.56475,1.25073 1.33911,3.36678 1.72078,4.70234 c 0.38168,1.33556 1.4897,3.61991 2.46226,5.07634 l 1.7683,2.64805 l -0.29773,3.17729 c -0.16376,1.7475 -0.48579,3.44747 -0.71563,3.7777 c -0.27535,0.39562 -0.32636,-0.58235 -0.14953,-2.86725 z m 10.59137,-0.48395 c -2.22133,-0.33491 -6.04666,-1.59881 -6.04666,-1.99783 c 0,-0.43995 0.44839,-0.36414 4.53499,0.7667 c 1.42529,0.39441 2.77607,0.89586 3.00174,1.11433 c 0.25914,0.25088 0.25914,0.37556 0,0.33841 c -0.22567,-0.0324 -0.8962,-0.13208 -1.49007,-0.22161 z m -7.22161,-4.82739 c -1.99575,-0.81076 -3.28618,-1.80265 -2.34522,-1.80265 c 0.29685,0 1.12107,0.30062 1.83161,0.66805 c 0.71053,0.36743 2.59585,0.92782 4.18962,1.2453 l 2.89774,0.57725 l -2.37547,0.0263 c -1.30777,0.0145 -3.19477,-0.30655 -4.19828,-0.71422 z m 14.547668,-6.37747 c -2.41998,-5.47108 -2.2028,-5.21616 -8.864558,-10.40468 c -3.62996,-2.82718 -6.52625,-5.60542 -6.19203,-5.93964 c 0.11035,-0.11036 1.84628,1.1528 3.85761,2.80701 c 2.01133,1.65421 4.37342,3.48543 5.24908,4.06937 c 3.082678,2.05569 4.944398,4.45185 6.415638,8.25736 c 1.71606,4.43876 1.36535,5.35032 -0.46574,1.21058 z m 1.95989,-3.19947 c -0.14682,-0.23754 -0.0611,-0.4319 0.19046,-0.4319 c 0.25157,0 0.45739,0.19436 0.45739,0.4319 c 0,0.23755 -0.0857,0.43191 -0.19046,0.43191 c -0.10475,0 -0.31058,-0.19436 -0.45739,-0.43191 z m -1.19452,-1.40369 c -0.11394,-0.29693 -0.18333,-0.67728 -0.15418,-0.84521 c 0.0292,-0.16794 -0.33573,-0.59906 -0.81082,-0.95805 c -0.4751,-0.35899 -0.69183,-0.65889 -0.48164,-0.66645 c 0.2102,-0.008 -0.0813,-0.37871 -0.64786,-0.82479 c -1.19417,-0.9403 -3.2349,-4.3718 -2.59993,-4.3718 c 0.23592,0 1.04468,0.91234 1.79724,2.02744 c 0.75257,1.11509 1.83437,2.63848 2.40401,3.38532 c 0.56964,0.74683 0.90706,1.48652 0.74984,1.64375 c -0.15723,0.15722 -0.0591,0.28587 0.21802,0.28587 c 0.27714,0 0.50389,0.19435 0.50389,0.4319 c 0,0.61592 -0.73177,0.53517 -0.97857,-0.10798 z m 18.33138,-18.06981 c -0.31262,-0.50057 -0.48544,-0.99307 -0.38406,-1.09446 c 0.29964,-0.29964 1.2664,1.06273 1.10267,1.55391 c -0.0826,0.24787 -0.406,0.0411 -0.71861,-0.45945 z m -27.550748,-6.46148 c -0.50159,-0.18652 -1.01788,-0.74405 -1.1473,-1.23896 c -0.18898,-0.72264 -0.0362,-0.89985 0.77589,-0.89985 c 0.55617,0 1.55835,0.22905 2.22707,0.50901 l 1.21585,0.50901 l -1.0418,0.17806 c -0.70116,0.11984 -0.86585,0.28681 -0.50367,0.51065 c 0.82023,0.50693 -0.3975,0.85171 -1.52604,0.43208 z m 2.74758,-11.53614 c -0.85834,-0.19068 -1.04107,-0.98442 -0.21595,-0.93802 c 0.29693,0.0167 0.914378,0.17706 1.372108,0.35638 c 0.63075,0.24709 0.68303,0.37729 0.21596,0.53778 c -0.33896,0.11647 -0.95641,0.13621 -1.372118,0.0439 z m 0.431908,-1.26611 c -0.415708,-0.10863 -0.755838,-0.37762 -0.755838,-0.59775 c 0,-0.61672 1.464978,-0.47401 2.400898,0.23389 c 0.82702,0.62552 0.82667,0.63362 -0.0254,0.59775 c -0.4751,-0.02 -1.20394,-0.12525 -1.61965,-0.23389 z m 3.1313,-10.49988 c 0,-0.23755 0.5716,-0.43191 1.27023,-0.43191 c 0.69862,0 1.39034,0.19436 1.53715,0.43191 c 0.15886,0.25703 -0.35543,0.4319 -1.27022,0.4319 c -0.84543,0 -1.53716,-0.19436 -1.53716,-0.4319 z" id="path4302" style="fill:black" />
    </g>
  </g>
</svg>
