<?xml version="1.0" encoding="UTF-8" standalone="no"?>
<!-- Created with Inkscape (http://www.inkscape.org/) -->

<svg xmlns:dc="http://purl.org/dc/elements/1.1/" xmlns:cc="http://creativecommons.org/ns#" xmlns:rdf="http://www.w3.org/1999/02/22-rdf-syntax-ns#" xmlns:svg="http://www.w3.org/2000/svg" xmlns="http://www.w3.org/2000/svg" xmlns:sodipodi="http://sodipodi.sourceforge.net/DTD/sodipodi-0.dtd" xmlns:inkscape="http://www.inkscape.org/namespaces/inkscape" version="1.1" width="249.96078" height="249.88663" id="svg4353" inkscape:version="0.48.4 r9939" sodipodi:docname="back1.svg">
  <sodipodi:namedview pagecolor="#ffffff" bordercolor="#666666" borderopacity="1" objecttolerance="10" gridtolerance="10" guidetolerance="10" inkscape:pageopacity="0" inkscape:pageshadow="2" inkscape:window-width="1680" inkscape:window-height="991" id="namedview28" showgrid="false" fit-margin-top="0" fit-margin-left="0" fit-margin-right="0" fit-margin-bottom="0" inkscape:zoom="2.4930303" inkscape:cx="143.66001" inkscape:cy="121.93996" inkscape:window-x="0" inkscape:window-y="0" inkscape:window-maximized="1" inkscape:current-layer="svg4353" />
  <defs id="defs4355">
    <filter color-interpolation-filters="sRGB" id="filter3801-5-7">
      <feGaussianBlur stdDeviation="2.8378378" id="feGaussianBlur3803-9-4" />
    </filter>
    <filter color-interpolation-filters="sRGB" id="filter3813-3-8">
      <feGaussianBlur stdDeviation="0.70945946" id="feGaussianBlur3815-5-5" />
    </filter>
    <filter color-interpolation-filters="sRGB" id="filter3801-6-7-8">
      <feGaussianBlur stdDeviation="2.8378378" id="feGaussianBlur3803-7-0-2" />
    </filter>
    <filter color-interpolation-filters="sRGB" id="filter3874-5-8-6">
      <feGaussianBlur stdDeviation="0.43693231" id="feGaussianBlur3876-4-1-0" />
    </filter>
    <filter color-interpolation-filters="sRGB" id="filter3801-5-7-3">
      <feGaussianBlur stdDeviation="2.8378378" id="feGaussianBlur3803-9-4-6" />
    </filter>
    <filter color-interpolation-filters="sRGB" id="filter3813-3-8-7">
      <feGaussianBlur stdDeviation="0.70945946" id="feGaussianBlur3815-5-5-5" />
    </filter>
    <filter color-interpolation-filters="sRGB" id="filter3801-6-7-8-3">
      <feGaussianBlur stdDeviation="2.8378378" id="feGaussianBlur3803-7-0-2-5" />
    </filter>
    <filter color-interpolation-filters="sRGB" id="filter3874-5-8-6-6">
      <feGaussianBlur stdDeviation="0.43693231" id="feGaussianBlur3876-4-1-0-2" />
    </filter>
  </defs>
  <metadata id="metadata4358">
    <rdf:RDF>
      <cc:Work rdf:about="">
        <dc:format>image/svg+xml</dc:format>
        <dc:type rdf:resource="http://purl.org/dc/dcmitype/StillImage" />
        <dc:title></dc:title>
      </cc:Work>
    </rdf:RDF>
  </metadata>
  <g id="g3008">
    <rect width="80" height="130" rx="6.4539151" ry="10.30674" x="206.39877" y="166.01927" transform="matrix(2.3847597,0,0,1.5439098,-449.2736,-217.65569)" id="rect2985-9-6" style="opacity:0.503;fill:black;fill-opacity:1;stroke:none;filter:url(#filter3801-5-7-3)" />
    <rect transform="matrix(2.591648,0,0,2.6397479,-0.0415888,0.04013146)" width="84" height="84" rx="5.9387069" ry="6.0281048" x="2.2076592" y="2.1989391" id="rect2985-3-7-4" style="fill:#00bfff;fill-opacity:1;stroke:black;stroke-opacity:1;filter:url(#filter3813-3-8-7)" />
    <rect width="80" height="130" rx="6.4912643" ry="10.286507" x="206.39877" y="166.01927" transform="matrix(2.3710384,0,0,1.5469466,-470.86568,-238.73413)" id="rect2985-5-8-6" style="opacity:0.23300021;fill:black;fill-opacity:1;stroke:none;filter:url(#filter3801-6-7-8-3)" />
    <path inkscape:connector-curvature="0" style="fill:#fea;fill-opacity:1;stroke:none" id="path4916" d="m 98.48061,182.06551 c -4.381,-1.76066 -9.597391,-4.18192 -11.592027,-5.3806 c -3.403611,-2.04552 -5.050837,-2.12994 -26.795619,-1.37378 c -12.742978,0.44311 -24.534639,1.16637 -26.203764,1.60716 c -1.766208,0.46644 -3.034664,0.34557 -3.034664,-0.28924 c 0,-2.0646 5.010355,-35.64874 9.980151,-50.14885 c 0.572469,1.45746 13.937442,-0.36537 38.630664,1.66674 c 12.332953,4.90212 21.075259,12.51251 29.313609,10.40808 c 4.63923,-1.18507 17.37071,25.00614 21.12219,25.40055 c 3.24138,0.34074 7.99537,15.39823 7.99537,15.1442 c 0,-0.2542 -2.47155,-1.7375 -5.4923,-3.29664 c -55.755498,-56.81134 1.00587,-13.51863 16.9479,-34.46123 c 3.30241,-5.08294 20.54672,26.28022 20.54672,29.24559 c 0,1.15689 -1.8782,4.2592 -4.17378,6.89404 l -4.17382,4.79056 l -19.82787,0.29022 c -10.90534,0.15944 -21.81424,0.83875 -24.24196,1.50919 c -6.73583,1.86015 -10.32313,1.48143 -19.000671,-2.00594 z m 72.32903,-68.29026 c 10.85624,-4.75426 23.48832,-3.17717 24.26801,-9.00927 c 0.81256,-6.078074 -1.99124,21.56439 -2.044,27.37527 c -0.0207,2.36978 -0.64221,5.41095 -1.37938,6.75823 c -2.18139,3.98668 -9.57142,8.68865 -18.95195,12.05839 c -52.42815,-14.1849 -33.79109,-12.90478 -3.77929,-13.58805 c 12.96347,-0.30333 0.35189,16.44978 3.91004,9.23524 c 3.51508,-7.12721 9.88118,2.36894 11.3014,3.26291 c 3.0553,1.92335 -6.74992,15.78981 -11.91875,16.85548 C 46.924256,134.20173 124.55412,96.248806 170.80964,113.77525 z M 66.25808,128.6203 c -18.330778,34.71337 -20.967028,24.15097 0,0 z m 3.135402,-1.21616 l -11.525629,0.43458 c -11.914195,0.44921 -17.081604,-0.18267 -17.081604,-2.08838 c 0,-0.65147 4.85382,-1.10888 11.862906,-1.11794 c 15.264547,-0.0211 16.828737,-0.45255 16.828737,-4.65656 c 0,-5.34568 3.840951,-11.47037 11.654874,-18.58462 l 7.338795,-6.681704 L 86.470809,88.971839 C 84.548999,83.46031 84.547366,82.984812 86.428824,76.905208 C 89.039702,68.468785 88.169609,65.297735 80.935619,56.885255 C 73.362772,48.078686 72.788178,45.967495 76.584527,40.897833 c 3.019478,-4.032162 3.948143,-4.310128 14.159806,-4.238274 c 2.908011,0.02112 5.978751,1.258104 10.192977,4.108108 c 6.87818,4.651605 11.01761,10.481356 12.07213,17.001718 c 0.39994,2.472784 0.95583,5.295757 1.23528,6.27315 c 0.56628,1.980524 -2.9143,6.652878 -4.95585,6.652878 c -0.88772,0 -0.71348,-1.032643 0.53842,-3.191271 c 1.74293,-3.0053 -10.64748,6.176905 -12.591578,-0.04488 C 95.470436,61.809625 93.77568,65.563663 88.292686,61.074693 C 81.127272,55.208328 92.060916,58.40992 85.70902,59.868355 C 81.834221,60.758082 76.098956,44.784439 76.098956,47.053091 c 0,0.46024 3.042906,4.219347 6.762024,8.353377 c 7.689394,8.547424 32.05148,9.452224 29.27225,18.60431 c -1.3382,4.406716 16.63133,35.833702 17.89372,39.527082 c 2.45865,7.1936 2.42159,8.10506 -4.61225,15.66012 c -7.68893,8.25864 0.0397,23.25792 0.48827,28.55888 c 0.17752,2.09781 -23.15617,3.22701 -23.59343,3.67231 C 86.780045,158.04884 70.925275,143.23711 69.393611,127.40393 z m 120.368698,-2.71688 c -6.77285,4.16117 -16.36218,1.26848 -15.23738,0.65532 c 1.32487,-0.72221 0.16379,-31.704432 4.00694,-30.109972 c 6.75581,2.802938 12.30378,8.066382 17.84298,13.347702 l -4.13391,-3.7845 c -4.93678,-4.51949 -19.35668,19.81888 -27.51654,16.9594 c -7.38505,-2.58803 -4.66937,-5.51789 -12.69176,-3.14243 c -16.56035,11.0372 -34.26672,14.03765 -36.01204,12.14371 c -3.55981,-3.95551 3.11817,-37.544186 -0.13814,-46.010993 C 114.45586,81.036255 89.165968,82.362808 88.227195,81.587725 c -1.249874,-1.031851 21.975515,-6.738484 22.871735,-7.651388 c 1.8417,-1.875832 3.47522,-0.274059 6.25896,6.137308 c 2.65784,6.121338 9.91689,13.668773 11.9285,12.402459 c 0.65436,-0.411932 5.00165,-0.646289 9.66068,-0.520875 c 6.35316,0.170792 9.91186,-0.3504 14.23444,-2.085849 c 7.28124,-2.923257 12.33884,-2.92096 20.52386,0.0079 c 10.2084,3.654573 16.24207,7.211712 21.16078,12.475391 l 4.55241,4.87166 l -0.76645,6.6316 c -0.63467,5.49157 -1.32242,7.08474 -4.00063,9.26744 c -3.47739,2.83427 -4.8895,3.28554 -4.8895,1.56276 z" />
    <path inkscape:connector-curvature="0" style="fill:black" id="path4918" d="m 97.307785,183.57663 c -4.443795,-1.7859 -9.734955,-4.24189 -11.758177,-5.45776 c -3.452438,-2.07481 -5.123248,-2.16045 -27.179753,-1.39344 c -12.925637,0.44949 -24.886352,1.18308 -26.579372,1.6302 c -1.791528,0.47312 -3.078204,0.35051 -3.078204,-0.29338 c 0,-2.09422 12.912835,-3.9446 31.680668,-4.53979 l 18.808186,-0.59647 l -2.157962,-2.41788 c -2.118957,-2.37414 -4.676447,-6.77304 -4.676447,-8.04352 c 0,-0.35476 0.755569,-0.645 1.679025,-0.645 c 0.923456,0 1.679025,0.69935 1.679025,1.55415 c 0,3.40976 10.60067,11.64496 19.588505,15.21743 c 12.509731,4.97239 14.270521,5.21184 22.626981,3.07721 c 4.70573,-1.20203 9.56528,-1.65998 13.37052,-1.25995 c 3.28787,0.34562 5.97794,0.41761 5.97794,0.15997 c 0,-0.25764 -2.50695,-1.76243 -5.571,-3.3439 c -6.48376,-3.34657 -9.29655,-7.76318 -8.02595,-12.60234 c 1.20833,-4.60198 3.16728,-4.76243 2.64626,-0.21673 c -0.56431,4.92332 3.09611,10.05697 5.63846,7.90784 c 1.37231,-1.16003 2.4275,-0.62234 6.08042,3.09835 c 6.87365,7.00125 12.53993,7.48699 19.34101,1.65806 c 3.58443,-3.07209 5.9512,-2.99319 3.4195,0.11403 c -1.16876,1.43439 -1.10169,1.73775 0.38426,1.73775 c 0.99011,0 3.13353,-2.05222 4.76319,-4.56048 c 3.34976,-5.1558 3.78484,-5.43479 3.78484,-2.42691 c 0,1.1735 -1.90514,4.32027 -4.23364,6.99285 l -4.23364,4.85925 l -20.11209,0.29439 c -11.06167,0.16181 -22.12695,0.85076 -24.58951,1.53081 c -6.83236,1.88684 -10.47113,1.50268 -19.273045,-2.03469 z m 52.445025,-15.56155 c -2.0715,-0.89929 -5.14408,-1.63504 -6.82795,-1.63504 c -4.19422,0 -11.56142,-5.69082 -13.91938,-10.75206 c -2.1457,-4.60567 -1.64642,-9.80687 1.16997,-12.18766 c 1.48364,-1.25417 1.59996,-0.90485 0.92281,2.77152 c -0.69977,3.79939 -0.53953,4.20655 1.6557,4.20655 c 2.08177,0 2.35314,-0.49987 1.89139,-3.484 c -0.29649,-1.91619 -1.33413,-4.71992 -2.3059,-6.23054 c -2.43234,-3.78112 -2.21215,-8.78331 0.54373,-12.35186 c 2.13373,-2.76297 2.17657,-3.1867 0.55967,-5.53798 c -2.66515,-3.87562 -2.22014,-9.64521 0.99662,-12.92167 c 3.15927,-3.2179 6.2481,-3.48718 12.83752,-1.11914 c 4.40134,1.58171 5.10054,1.51542 12.02711,-1.14011 c 4.04476,-1.55072 8.51743,-2.81946 9.93926,-2.81946 c 1.4218,0 3.34068,-0.7696 4.26414,-1.71019 c 1.92541,-1.96115 4.74326,-2.24017 5.75664,-0.57005 c 0.38048,0.62707 1.7064,1.1401 2.9465,1.1401 c 1.54434,0 2.13622,0.62861 1.87866,1.99523 c -0.31465,1.66953 -1.7816,2.03221 -8.98742,2.22201 c -6.62832,0.17448 -10.57551,1.02786 -17.14046,3.70539 c -9.85433,4.01909 -9.47926,3.94188 -9.47926,1.9514 c 0,-1.69316 -4.58479,-4.17341 -7.71461,-4.17341 c -2.73707,0 -5.71752,3.58023 -5.71752,6.86809 c 0,2.57146 4.98239,9.09357 6.94681,9.09357 c 0.51219,0 0.62899,-1.22667 0.25956,-2.72591 c -0.36944,-1.49925 -0.18842,-3.03009 0.40206,-3.40185 c 0.59056,-0.37178 1.35183,0.74029 1.69173,2.47126 c 0.73937,3.76546 8.92947,10.87019 11.71699,10.16419 c 1.40478,-0.35579 0.93383,-0.87455 -1.7321,-1.90791 c -4.2821,-1.65982 -6.40691,-4.93406 -4.93753,-7.60841 c 0.85646,-1.55888 1.11278,-1.4266 1.686,0.87019 c 0.41606,1.66713 2.52053,3.69071 5.47351,5.26316 c 4.45164,2.37044 5.16075,2.44306 9.8346,1.00735 c 7.08878,-2.17755 19.75961,-3.41464 20.61055,-2.01228 c 0.84586,1.39405 -0.25502,1.74897 -15.01381,4.84075 c -12.31318,2.5794 -20.50963,3.03383 -22.74212,1.26084 c -0.7281,-0.57823 -2.45712,-1.33391 -3.84233,-1.67932 c -2.24297,-0.55929 -2.51851,-0.19904 -2.51851,3.29147 c 0,2.48092 -0.63397,4.16727 -1.72731,4.59459 c -2.10053,0.82101 -3.74563,-0.55414 -1.99038,-1.66378 c 0.69,-0.43619 1.43098,-2.58878 1.6466,-4.78352 c 0.35407,-3.60365 0.0998,-4.02477 -2.62262,-4.34491 c -2.67333,-0.3144 -3.10109,0.11456 -3.77784,3.78901 c -0.675,3.66479 -0.3336,4.59501 2.95442,8.05033 c 4.40511,4.62928 6.63646,4.98448 6.63646,1.05648 c 0,-3.84558 1.99956,-3.64182 2.44419,0.2492 c 0.23843,2.08674 1.4452,3.66985 3.69359,4.84549 c 1.83667,0.96039 3.93681,2.51573 4.66698,3.45633 c 2.18738,2.81774 10.17544,1.95837 19.41756,-2.08902 c 11.01184,-4.8224 14.82306,-8.28984 15.61391,-14.20551 c 0.82422,-6.16524 3.42877,-7.08144 3.37528,-1.18728 c -0.0207,2.40373 -0.65144,5.48854 -1.39918,6.85508 c -2.21264,4.04383 -9.70862,8.81322 -19.2236,12.23125 c -10.46932,3.76084 -14.15009,3.55967 -26.49859,-1.44828 l -8.24652,-3.34437 l -0.60556,2.44916 c -0.34674,1.40234 -1.66242,2.60487 -3.07821,2.81347 c -3.23671,0.47692 -3.11902,1.44529 0.60557,4.98366 c 3.50497,3.32972 8.82904,6.4418 7.6246,4.45679 c -0.41845,-0.68964 -0.42247,-1.81153 -0.008,-2.49309 c 0.46969,-0.77408 2.18476,0.17528 4.56936,2.52949 c 3.78586,3.73749 3.89963,3.76676 13.74924,3.53629 c 13.1493,-0.30767 15.04441,-1.17002 18.65357,-8.48796 c 3.56549,-7.22939 3.38977,-7.00747 4.83036,-6.10064 c 3.09907,1.95091 -6.84669,16.01614 -12.08962,17.09707 c -7.60845,1.56862 -18.73318,1.56888 -22.34596,5.8e-4 z m -20.29952,-0.99767 c 0,-0.90358 0.50371,-1.95999 1.11936,-2.34753 c 0.61565,-0.38756 1.11933,0.35175 1.11933,1.64288 c 0,1.29115 -0.50368,2.34752 -1.11933,2.34752 c -0.61565,0 -1.11936,-0.73928 -1.11936,-1.64287 z m 43.86432,-6.4092 c 0.26935,-0.82305 1.15084,-1.72088 1.95887,-1.99523 c 0.83949,-0.28501 1.25925,0.14255 0.97941,0.99762 c -0.26935,0.82302 -1.15082,1.72085 -1.95885,1.9952 c -0.83951,0.28504 -1.25925,-0.14255 -0.97943,-0.99759 z M 112.968,145.8579 c 0,-2.82178 0.21822,-3.97617 0.48508,-2.56525 c 0.26681,1.41089 0.26681,3.71964 0,5.13054 c -0.26679,1.41089 -0.48508,0.25658 -0.48508,-2.56529 z m -49.746113,-4.0854 c -0.352568,-6.16743 0.218216,-11.22101 1.401485,-12.40724 c 0.821319,-0.82342 0.952664,1.22875 0.435345,6.80163 c -0.802659,8.64641 -1.535214,10.88199 -1.83683,5.60561 z m 5.32892,-5.91781 l -0.74712,-7.72301 l -11.690821,0.44081 c -12.084984,0.45565 -17.326488,-0.18531 -17.326488,-2.11832 c 0,-0.6608 4.923405,-1.12477 12.03297,-1.13398 c 15.48336,-0.0211 17.069993,-0.45905 17.069993,-4.7233 c 0,-5.42228 3.895998,-11.63477 11.821932,-18.85105 l 7.44399,-6.77747 l -2.02939,-5.819905 c -1.949411,-5.590564 -1.95107,-6.072872 -0.04276,-12.239587 c 2.648328,-8.557403 1.765768,-11.77391 -5.571939,-20.306974 C 71.82976,47.669103 71.24695,45.527634 75.097699,40.385326 c 3.062758,-4.089999 4.004744,-4.371951 14.362809,-4.299041 c 2.949685,0.02112 6.064457,1.276107 10.339095,4.166974 c 6.976767,4.718285 11.175547,10.631611 12.245177,17.24542 c 0.40567,2.508262 0.96951,5.371676 1.25298,6.363113 c 0.57439,2.008901 -2.95606,6.748251 -5.02689,6.748251 c -0.90044,0 -0.72372,-1.047452 0.54614,-3.237044 c 1.76792,-3.04838 1.7553,-3.627515 -0.21666,-9.938254 c -1.7906,-5.730629 -3.03586,-7.472467 -8.59746,-12.025794 c -7.268119,-5.950467 -10.628321,-7.0462 -17.071235,-5.566859 c -3.930364,0.902477 -8.326473,4.485697 -8.326473,6.786871 c 0,0.466892 3.086523,4.27985 6.858952,8.473168 c 7.799642,8.669936 9.058354,13.207055 6.239315,22.490336 c -1.357376,4.469911 -1.371189,5.944686 -0.09071,9.691016 c 2.493891,7.296712 1.982533,8.945102 -5.15217,16.608477 c -7.799124,8.37703 -10.382894,13.21579 -9.928085,18.59275 c 0.180119,2.12787 -0.03551,4.23843 -0.479041,4.69012 c -0.443405,0.45166 -0.806209,4.32707 -0.806209,8.61204 c 0,4.28495 -0.438637,7.79079 -0.974719,7.79079 c -0.536083,0 -1.310934,-3.47533 -1.721865,-7.72297 z m 115.468573,3.63556 c -0.87792,-0.89424 0.38167,-5.03352 1.53169,-5.03352 c 1.27229,0 1.29383,4.23389 0.0259,5.03226 c -0.52976,0.33347 -1.23054,0.33403 -1.55727,0.001 z m -70.169,-0.47307 c -0.10626,-1.3865 3.28395,-11.50222 4.96363,-14.81065 c 2.39994,-4.72712 3.39117,-3.72896 1.26425,1.2731 c -3.55252,8.35496 -6.18631,14.07999 -6.22788,13.53755 z m 6.64817,-0.83429 c 0,-1.98469 6.71499,-20.11641 7.90352,-21.34101 c 1.6254,-1.67469 1.3163,-0.36389 -2.45932,10.42951 c -3.34934,9.57481 -5.4442,13.77338 -5.4442,10.9115 z m 69.39936,-12.80703 c 0,-0.605 0.93348,-1.60884 2.07441,-2.23079 c 1.34387,-0.73256 2.52493,-3.41568 3.35369,-7.61892 l 1.27924,-6.48814 l -4.19318,-3.83874 c -5.00753,-4.58429 -10.86906,-7.886831 -19.14588,-10.787306 c -7.49093,-2.625098 -13.02765,-2.701492 -21.16503,-0.291983 c -4.45867,1.320244 -8.26238,1.636644 -13.32457,1.108377 c -7.44998,-0.777432 -8.9662,0.193494 -4.28625,2.744546 c 1.5391,0.838991 2.79838,1.951804 2.79838,2.472886 c 0,1.69166 -2.70251,0.99593 -7.27574,-1.873082 c -5.8156,-3.648396 -6.79097,-3.58879 -4.17607,0.255263 c 4.65504,6.843259 3.96382,9.533929 -1.02513,3.990429 c -3.61081,-4.012206 -6.54982,-9.368704 -9.85259,-17.956886 c -1.44692,-3.762406 -3.40986,-7.483949 -4.36208,-8.270145 c -1.26781,-1.046687 -1.39897,-1.767971 -0.48987,-2.693942 c 1.86808,-1.902757 3.52503,-0.278018 6.34868,6.225291 c 2.69591,6.209056 10.05901,13.864695 12.09949,12.58022 c 0.6637,-0.417819 5.07334,-0.655555 9.79916,-0.528319 c 6.44421,0.173431 10.05396,-0.355442 14.43848,-2.115732 c 7.38563,-2.965176 12.51574,-2.962879 20.81806,0.0079 c 10.35472,3.706918 16.4749,7.315084 21.46413,12.654183 l 4.61767,4.9415 l -0.77741,6.72666 c -0.6438,5.57029 -1.34139,7.18632 -4.05801,9.40033 c -3.52723,2.87487 -4.95958,3.3326 -4.95958,1.58514 z m -51.48985,-5.50783 c 0,-2.09438 1.32796,-4.79333 2.35845,-4.79333 c 1.60156,0 1.15289,3.01155 -0.67943,4.56048 c -1.01662,0.85937 -1.67902,0.95123 -1.67902,0.23282 z m 52.19815,-0.81954 c -1.05074,-2.789 -0.85789,-8.53428 0.28648,-8.53428 c 1.4409,0 2.71249,8.08117 1.4706,9.34611 c -0.65213,0.66424 -1.31663,0.35724 -1.75708,-0.81183 z m -30.9306,-17.01787 c 0,-2.231749 0.50369,-4.057716 1.11934,-4.057716 c 0.61564,0 1.11935,1.50888 1.11935,3.353056 c 0,1.84421 -0.50371,3.67018 -1.11935,4.05772 c -0.66614,0.41935 -1.11934,-0.93827 -1.11934,-3.35306 z M 100.35035,73.052391 c 0,-1.171784 3.39035,-2.789475 4.17378,-1.991505 c 0.27243,0.277516 -0.55524,1.077202 -1.83922,1.777131 c -1.28483,0.700378 -2.33456,0.796781 -2.33456,0.214347 z" />
  </g>
</svg>
