<?xml version="1.0" encoding="UTF-8" standalone="no"?>
<!-- Created with Inkscape (http://www.inkscape.org/) -->

<svg xmlns:dc="http://purl.org/dc/elements/1.1/" xmlns:cc="http://creativecommons.org/ns#" xmlns:rdf="http://www.w3.org/1999/02/22-rdf-syntax-ns#" xmlns:svg="http://www.w3.org/2000/svg" xmlns="http://www.w3.org/2000/svg" xmlns:sodipodi="http://sodipodi.sourceforge.net/DTD/sodipodi-0.dtd" xmlns:inkscape="http://www.inkscape.org/namespaces/inkscape" version="1.1" width="250.01285" height="249.18723" id="svg4353" inkscape:version="0.48.4 r9939" sodipodi:docname="back5.svg">
  <sodipodi:namedview pagecolor="#ffffff" bordercolor="#666666" borderopacity="1" objecttolerance="10" gridtolerance="10" guidetolerance="10" inkscape:pageopacity="0" inkscape:pageshadow="2" inkscape:window-width="1680" inkscape:window-height="991" id="namedview34" showgrid="false" fit-margin-top="0" fit-margin-left="0" fit-margin-right="0" fit-margin-bottom="0" inkscape:zoom="2.4930303" inkscape:cx="47.435308" inkscape:cy="47.331956" inkscape:window-x="0" inkscape:window-y="0" inkscape:window-maximized="1" inkscape:current-layer="svg4353" />
  <defs id="defs4355">
    <filter color-interpolation-filters="sRGB" id="filter3801-5-7">
      <feGaussianBlur stdDeviation="2.8378378" id="feGaussianBlur3803-9-4" />
    </filter>
    <filter color-interpolation-filters="sRGB" id="filter3813-3-8">
      <feGaussianBlur stdDeviation="0.70945946" id="feGaussianBlur3815-5-5" />
    </filter>
    <filter color-interpolation-filters="sRGB" id="filter3801-6-7-8">
      <feGaussianBlur stdDeviation="2.8378378" id="feGaussianBlur3803-7-0-2" />
    </filter>
    <filter color-interpolation-filters="sRGB" id="filter3874-5-8-6">
      <feGaussianBlur stdDeviation="0.43693231" id="feGaussianBlur3876-4-1-0" />
    </filter>
    <filter color-interpolation-filters="sRGB" id="filter3801-5-7-3">
      <feGaussianBlur stdDeviation="2.8378378" id="feGaussianBlur3803-9-4-6" />
    </filter>
    <filter color-interpolation-filters="sRGB" id="filter3813-3-8-7">
      <feGaussianBlur stdDeviation="0.70945946" id="feGaussianBlur3815-5-5-5" />
    </filter>
    <filter color-interpolation-filters="sRGB" id="filter3801-6-7-8-3">
      <feGaussianBlur stdDeviation="2.8378378" id="feGaussianBlur3803-7-0-2-5" />
    </filter>
    <filter color-interpolation-filters="sRGB" id="filter3874-5-8-6-6">
      <feGaussianBlur stdDeviation="0.43693231" id="feGaussianBlur3876-4-1-0-2" />
    </filter>
  </defs>
  <metadata id="metadata4358">
    <rdf:RDF>
      <cc:Work rdf:about="">
        <dc:format>image/svg+xml</dc:format>
        <dc:type rdf:resource="http://purl.org/dc/dcmitype/StillImage" />
        <dc:title></dc:title>
      </cc:Work>
    </rdf:RDF>
  </metadata>
  <g id="g3023" transform="matrix(2.5917565,0,0,2.6327824,-4.1722025,-0.04224889)">
    <rect width="80" height="130" rx="6.4536452" ry="10.334008" x="206.39877" y="166.01927" transform="matrix(0.92017113,0,0,0.58487016,-171.72856,-82.452367)" id="rect2985-9-6" style="opacity:0.503;fill:black;fill-opacity:1;stroke:none;filter:url(#filter3801-5-7-3)" />
    <rect width="84" height="84" rx="5.9384584" ry="6.0440531" x="3.8174565" y="2.2149863" id="rect2985-3-7-4" style="fill:#00bfff;fill-opacity:1;stroke:black;stroke-opacity:1;filter:url(#filter3813-3-8-7)" />
    <rect width="80" height="130" rx="6.4909925" ry="10.313722" x="206.39877" y="166.01927" transform="matrix(0.91487671,0,0,0.58602057,-180.05997,-90.437388)" id="rect2985-5-8-6" style="opacity:0.23300021;fill:black;fill-opacity:1;stroke:none;filter:url(#filter3801-6-7-8-3)" />
    <g transform="matrix(0.80327555,0,0,0.80327555,-238.52474,-69.819262)" id="g6587">
      <path d="m 365.13113,183.9155 c -0.1555,-0.61953 -0.1504,-3.04752 0.011,-5.39557 l 0.2941,-4.26912 l -1.0935,0.41571 c -2.0267,0.77056 -4.7354,0.94341 -5.54,0.35356 c -0.6559,-0.48088 -0.3792,-0.56411 1.9614,-0.59011 c 1.8554,-0.0207 3.1672,-0.29154 4.1109,-0.84895 c 1.6994,-1.00388 1.8096,-1.71242 0.1981,-1.27339 c -1.7667,0.48132 -6.5777,0.4881 -6.586,0.009 c 0,-0.22861 1.1801,-0.45872 2.6313,-0.51137 c 2.0014,-0.0726 3.0428,-0.36332 4.3131,-1.20398 c 0.9211,-0.6095 1.805,-1.10822 1.9642,-1.10822 c 0.6536,0 3.1786,-3.04333 4.1603,-5.01446 c 1.4046,-2.82003 2.1016,-5.14372 4.0016,-13.34149 c 0.8809,-3.80076 1.8405,-7.29918 2.1323,-7.77428 c 1.3771,-2.24197 5.7119,-18.34994 6.1779,-22.95706 c 0.1544,-1.52657 0.047,-1.83646 -0.7225,-2.08066 c -1.675,-0.53159 -2.4818,0.15527 -3.8675,3.29245 c -0.7455,1.68797 -1.3567,3.28684 -1.3582,3.55311 c 0,0.26622 -0.3076,1.06715 -0.6804,1.77979 c -0.3728,0.71264 -1.3513,2.94775 -2.1745,4.9669 c -2.1222,5.20531 -2.8679,6.52025 -3.6174,6.37854 c -1.4392,-0.27201 -0.78,-4.88333 3.011,-21.06329 c 1.154,-4.92557 1.2381,-9.89407 0.1804,-10.66748 c -0.8826,-0.64536 -2.299,-0.35788 -3.0721,0.62349 c -0.875,1.11077 -3.2655,8.9815 -5.346,17.60232 c -0.2293,0.95019 -1.0429,3.64648 -1.808,5.99181 c -1.0412,3.19164 -1.6322,4.37541 -2.35,4.70646 c -1.3458,0.62091 -2.2803,-0.27296 -2.2803,-2.18103 c 0,-2.8272 3.3032,-18.57298 5.4364,-25.9144 c 0.3645,-1.25438 0.7695,-3.58667 0.9,-5.18286 c 0.2228,-2.724229 0.1678,-2.966709 -0.8963,-3.955079 c -0.9475,-0.88013 -1.3275,-0.98534 -2.3151,-0.64107 c -1.0056,0.35062 -1.3914,1.01696 -2.5922,4.476389 c -0.7759,2.23545 -2.1958,7.38284 -3.1553,11.43864 c -3.0067,12.70944 -4.7197,18.70488 -5.7196,20.01787 c -0.6113,0.80278 -0.2802,0.9606 3.0016,1.43068 c 1.6308,0.23358 3.8813,0.62843 5.0011,0.87742 c 1.1198,0.24899 2.286,0.49842 2.5914,0.55422 c 3.4116,0.62341 10.5587,3.04048 11.4454,3.87073 c 0.2883,0.26998 0.379,0.72581 0.2014,1.01294 c -0.2365,0.38263 -1.2418,0.11014 -3.7635,-1.0202 c -4.7943,-2.14894 -7.2764,-2.79028 -21.5683,-5.57299 c -1.8935,-0.36868 -3.5455,-0.77428 -3.6711,-0.9013 c -0.1257,-0.12707 0.4588,-0.10267 1.2988,0.0542 l 1.5273,0.28519 l 0.051,-1.8663 c 0.123,-4.5017 1.5338,-17.83511 2.5379,-23.98651 c 0.8538,-5.23037 0.6782,-6.29333 -1.1658,-7.05715 c -1.2709,-0.52636 -1.4292,-0.48922 -2.3178,0.54385 c -0.6499,0.75549 -1.1923,2.39751 -1.7022,5.15327 c -0.4116,2.22448 -1.1223,5.8479 -1.5792,8.05204 c -0.4569,2.20418 -0.9264,4.73083 -1.0434,5.61476 c -0.273,2.06308 -1.0605,5.93217 -1.6019,7.86982 c -0.2323,0.83142 -0.8676,3.94113 -1.4117,6.91047 c -0.5442,2.96935 -1.1304,5.83542 -1.3027,6.36908 c -0.3122,0.96682 -0.3068,0.96794 1.5186,0.32393 c 2.1668,-0.76451 2.2875,-0.7779 1.94,-0.21561 c -0.1464,0.23686 -1.5184,1.03463 -3.0488,1.77276 c -1.5305,0.73808 -2.7827,1.44433 -2.7827,1.56932 c 0,0.12504 0.6803,0.11696 1.5117,-0.0181 c 0.8314,-0.13492 1.5117,-0.0875 1.5117,0.10547 c 0,0.40444 -2.1374,0.89063 -3.9157,0.89063 c -1.4882,0 -2.0339,0.69934 -0.8411,1.07791 c 0.9171,0.2911 2.0707,1.94543 1.3566,1.94543 c -0.224,0 -1.3484,-0.48611 -2.4986,-1.08024 c -3.0451,-1.57282 -9.6641,-3.3172 -9.636,-2.53947 c 0.01,0.20921 0.299,0.75769 0.6478,1.21879 c 0.3488,0.46115 0.6341,1.1166 0.6341,1.4566 c 0,0.89374 -0.9063,0.0548 -2.3647,-2.18889 c -0.6556,-1.00854 -2.1481,-2.65971 -3.3167,-3.66929 c -2.4041,-2.07681 -4.2045,-2.35703 -6.8045,-1.05903 c -3.1147,1.55494 -2.8732,2.46574 1.4283,5.38684 c 1.4202,0.96444 3.6955,2.77702 5.0562,4.0279 c 2.4885,2.2878 4.5905,3.62964 5.6856,3.62964 c 1.4539,0 5.019,1.35523 4.8587,1.847 c -0.095,0.29067 0.6421,1.11561 1.6375,1.83317 c 0.9954,0.71761 2.1014,1.89874 2.4577,2.62477 c 0.3563,0.72603 1.3121,2.72692 2.124,4.44637 c 2.3366,4.94872 5.3293,6.95678 10.3681,6.95678 c 2.5026,0 5.9745,-0.73705 6.9059,-1.46602 c 0.4703,-0.36811 0.5632,-0.33563 0.4054,0.14167 c -0.4011,1.21369 -3.4965,2.38666 -6.7383,2.55342 c -1.7222,0.0886 -3.1313,0.21327 -3.1313,0.27706 c 0,0.0638 0.42898,1.18009 0.78528,2.03289 c 0.17372,0.41579 0.0925,5.26372 0.42046,6.34248 c 0.12347,0.40616 11.06374,-0.96197 21.78957,2.8947 c 1.39926,0.50313 -21.59734,-2.46369 -21.89564,-1.75638 c -0.2394,0.56761 -0.98441,-0.63078 -0.94431,-2.61745 c 0.074,-3.65827 -0.77496,-7.15374 -2.66526,-7.93669 c -2.7471,-1.1379 -4.8046,-3.56771 -6.6116,-7.80806 c -0.985,-2.3113 -2.2514,-4.53642 -2.9001,-5.09535 c -1.2152,-1.04698 -8.53,-4.83828 -9.3351,-4.83828 c -0.2596,0 -1.6342,-1.07925 -3.0547,-2.39837 c -1.4204,-1.31908 -3.5544,-3.05706 -4.7421,-3.86213 c -1.1878,-0.80507 -3.0342,-2.3614 -4.1031,-3.45852 l -1.9436,-1.99475 l 1.5789,-1.45392 c 1.5787,-1.45379 3.9086,-2.37392 6.0226,-2.37846 c 1.209,-0.004 3.7354,1.6716 5.7292,3.79653 c 0.6805,0.7253 1.4929,1.22065 1.8054,1.10075 c 0.3125,-0.11994 2.2858,0.19816 4.3852,0.70681 c 3.5209,0.85306 3.917,0.87271 5.105,0.25323 c 0.7084,-0.36937 1.4823,-0.67921 1.7199,-0.68859 c 0.8293,-0.0328 2.3139,-1.59636 2.9413,-3.09792 c 0.6282,-1.50337 0.9021,-2.9005 1.3806,-7.04013 c 0.1373,-1.18774 0.6434,-3.81156 1.1248,-5.83071 c 0.4813,-2.01915 1.2409,-5.71194 1.688,-8.20619 c 2.3956,-13.36597 3.3758,-17.52379 4.5552,-19.32379 c 0.6095,-0.93033 0.9389,-1.046599 2.4073,-0.84965 c 0.9357,0.12551 1.9799,0.45955 2.3207,0.74232 c 1.0439,0.86636 1.1938,3.22106 0.4727,7.42362 c -0.3791,2.20949 -0.8834,5.86366 -1.1205,8.12036 c -0.2372,2.2567 -0.5133,4.51276 -0.6137,5.01346 c -0.1003,0.50071 -0.3233,3.38298 -0.4955,6.40511 l -0.313,5.49477 l 1.1866,-0.14253 c 0.9791,-0.11756 1.331,-0.52001 2.0126,-2.302 c 1.0715,-2.80151 2.7289,-9.12334 3.397,-12.95714 c 1.1336,-6.50504 5.0016,-19.118509 6.3043,-20.557919 c 0.9653,-1.06663 3.2396,-1.06309 4.5567,0.007 c 0.9258,0.75229 1.014,1.13971 0.9585,4.211069 c -0.034,1.90072 -0.4531,4.80165 -0.9558,6.62187 c -0.4921,1.78161 -0.9805,3.72518 -1.0853,4.31905 c -0.1048,0.59387 -0.606,2.63462 -1.1137,4.535 c -0.8409,3.14793 -1.4368,6.03513 -2.6295,12.74118 c -0.4913,2.7619 -0.1991,4.80589 0.6408,4.4836 c 0.6003,-0.23038 0.7569,-0.6974 3.8942,-11.61003 c 1.0927,-3.80076 2.4662,-8.47681 3.0522,-10.39123 c 0.5861,-1.91442 1.0656,-3.69732 1.0656,-3.96199 c 0,-0.26467 0.5032,-1.0792 1.1182,-1.81007 c 0.8393,-0.99753 1.4793,-1.32884 2.5669,-1.32884 c 3.4675,0 3.6694,3.8703 0.8632,16.54687 c -2.512,11.34769 -3.2344,16.40369 -2.1952,15.36448 c 0.2726,-0.27261 4.3609,-10.27492 5.8936,-14.41922 c 1.5068,-4.07393 2.3588,-5.28517 3.9091,-5.55684 c 1.6295,-0.28557 3.5383,1.73881 3.2589,3.4561 c -1.0937,6.72035 -3.5107,15.77083 -6.3157,23.64855 c -1.7115,4.80662 -2.568,7.85129 -3.2938,11.70884 c -1.1146,5.92466 -3.313,10.77715 -6.2615,13.82095 c -2.5542,2.63682 -3.0998,4.59728 -3.0352,10.90559 c 0.044,4.28242 -0.4633,5.81274 -1.0938,3.30061 z m -19.6013,-8.37549 c 0,-0.23755 0.6316,-0.43878 1.4036,-0.4472 c 0.7721,-0.009 1.8896,-0.29309 2.4835,-0.63257 c 0.5939,-0.33947 1.4685,-0.61533 1.9436,-0.61304 c 0.5692,0.004 0.2009,0.35917 -1.0798,1.04495 c -1.9733,1.05665 -4.7509,1.43539 -4.7509,0.64786 z m 10.9828,-7.01971 c -0.065,-2.95617 -1.5488,-6.38666 -3.7587,-8.68879 c -1.8538,-1.93113 -1.9621,-1.99376 -0.8431,-0.48793 c 1.9747,2.6573 3.1175,4.67485 3.1192,5.50679 c 0,1.09993 -0.7259,0.92574 -1.0194,-0.24386 c -0.4481,-1.78549 -4.45,-6.51519 -7.0111,-8.28626 c -1.374,-0.95019 -3.0443,-2.30542 -3.7116,-3.01162 c -1.2579,-1.33105 -1.6144,-2.55424 -0.6735,-2.31087 c 1.3704,0.35447 9.5338,6.21269 11.0369,7.92023 c 1.8718,2.12652 3.5399,6.50357 3.5399,9.28871 c 0,2.04649 -0.6342,2.33958 -0.6786,0.3136 z m 1.1419,-5.86859 c -0.2939,-1.06417 -1.2529,-2.67236 -2.2181,-3.71951 c -1.8195,-1.97385 -2.0212,-2.39599 -1.145,-2.39599 c 1.4161,0 4.6276,5.91372 4.0634,7.48244 c -0.1004,0.27927 -0.4155,-0.33585 -0.7003,-1.36694 z m 4.092,-5.73029 c 1.7813,-1.85123 4.7814,-3.43507 6.3861,-3.3714 c 0.8533,0.0337 0.8406,0.0662 -0.1438,0.36673 c -2.0253,0.61831 -4.533,2.10635 -5.8036,3.4437 c -0.6976,0.73441 -1.4659,1.33528 -1.7072,1.33528 c -0.2414,0 0.3295,-0.79842 1.2685,-1.77431 z m 1.0483,-3.46288 c 1.0628,-0.96056 2.3261,-1.94789 2.8073,-2.19399 c 0.4813,-0.2461 -0.1939,0.53897 -1.5005,1.74464 c -1.3065,1.20566 -2.5698,2.19295 -2.8073,2.19399 c -0.2376,0 0.4376,-0.78404 1.5005,-1.74464 z m 6.3881,-8.94971 c -5.7367,-3.00148 -10.2906,-4.40642 -17.5128,-5.40313 c -1.9676,-0.27153 -3.5225,-0.68802 -3.4552,-0.92552 c 0.313,-1.10564 10.8826,0.85033 15.9658,2.95457 c 4.3774,1.81197 9.4228,4.52964 9.4228,5.0754 c 0,0.59447 -0.1236,0.54687 -4.4206,-1.70132 z m 6.016,-9.84405 c -0.1519,-0.15191 -0.1889,-0.41735 -0.082,-0.58994 c 0.2473,-0.40008 2.3107,-0.0177 2.6219,0.4858 c 0.2667,0.43143 -2.1146,0.52909 -2.5396,0.10414 z m 1.3,-1.49617 c 0.3416,-0.34163 0.7026,-0.34535 1.2741,-0.0129 c 0.6991,0.40633 0.6403,0.46512 -0.4767,0.47665 c -0.9291,0.01 -1.145,-0.11593 -0.7974,-0.46352 z m -9.3739,-6.43382 c 0,-0.23755 0.3887,-0.4319 0.8638,-0.4319 c 0.4751,0 0.8638,0.19435 0.8638,0.4319 c 0,0.23755 -0.3887,0.43191 -0.8638,0.43191 c -0.4751,0 -0.8638,-0.19436 -0.8638,-0.43191 z m 12.6667,-0.89067 c -0.6772,-0.25435 -0.8734,-0.60005 -0.7054,-1.2425 c 0.2742,-1.04858 0.6936,-1.1268 1.4105,-0.26303 c 0.8312,1.00145 0.4006,1.9208 -0.7051,1.50553 z m -35.3671,-1.06663 c 0.8193,-0.6197 0.8168,-0.63413 -0.108,-0.63413 c -0.5205,0 -0.9464,-0.19435 -0.9464,-0.4319 c 0,-0.23755 0.6803,-0.4319 1.5117,-0.4319 c 1.1925,0 1.5117,0.17172 1.5117,0.81344 c 0,0.47847 -0.4002,0.92065 -0.9718,1.07385 c -1.5638,0.41908 -1.8951,0.28972 -0.9972,-0.38936 z m 23.9961,0.22968 c -0.5537,-0.35779 -0.538,-0.41963 0.108,-0.42529 c 0.4157,-0.004 0.7558,0.18775 0.7558,0.42529 c 0,0.52675 -0.049,0.52675 -0.8638,0 z m -12.0933,-1.72761 c 0,-0.23755 0.6802,-0.43191 1.5116,-0.43191 c 0.8314,0 1.5117,0.19436 1.5117,0.43191 c 0,0.23754 -0.6803,0.4319 -1.5117,0.4319 c -0.8314,0 -1.5116,-0.19436 -1.5116,-0.4319 z m 0.4319,-1.27823 c 0,-0.52515 2.8696,-0.61555 3.188,-0.10041 c 0.1186,0.19193 -0.5501,0.39415 -1.4862,0.44939 c -0.9551,0.0564 -1.7018,-0.0967 -1.7018,-0.34898 z m 13.8209,-6.06415 c 0,-0.23755 0.4259,-0.43191 0.9464,-0.43191 c 0.9248,0 0.9273,-0.0143 0.108,-0.63412 c -0.8214,-0.62121 -0.8196,-0.63438 0.087,-0.64786 c 0.9653,-0.0143 1.4568,0.68155 1.1344,1.60591 c -0.2228,0.63853 -2.2759,0.73597 -2.2759,0.10798 z m -25.3875,-5.449 c -0.081,-0.97679 0.038,-1.09466 0.8776,-0.86972 c 0.5341,0.14313 1.2141,0.2629 1.511,0.26614 c 0.8445,0.009 0.6326,0.8689 -0.216,0.87633 c -0.6459,0.006 -0.6616,0.0675 -0.1079,0.4253 c 0.4968,0.32108 0.3426,0.4202 -0.6617,0.42529 c -1.1024,0.006 -1.3242,-0.17202 -1.403,-1.12334 z m 15.7776,-0.0315 c -0.779,-0.20365 -1.065,-0.99805 -0.3592,-0.99805 c 0.7473,0 1.7629,0.52425 1.7629,0.91002 c 0,0.4031 -0.1595,0.41312 -1.4037,0.088 z m -0.01,-1.72866 c -0.4186,-0.10918 -0.6614,-0.35995 -0.5395,-0.5572 c 0.2778,-0.44948 1.9484,-0.0428 1.9484,0.4744 c 0,0.39926 -0.1598,0.40867 -1.4089,0.0828 z" id="path4930" style="fill:black;stroke:none" inkscape:connector-curvature="0" />
      <path d="m 364.88644,184.48197 c -1.83092,-0.64851 -5.11843,-1.41116 -7.76192,-1.80064 c -3.14913,-0.46399 -5.15564,-0.59963 -9.2502,-0.62532 c -3.39733,-0.0213 -3.64274,-0.0312 -3.70611,-0.14963 c -0.11142,-0.20821 -0.20009,-1.41352 -0.27833,-3.78377 c -0.0768,-2.32561 -0.0804,-2.35339 -0.4153,-3.18872 c -0.35745,-0.89155 -0.50301,-1.3147 -0.46115,-1.34058 c 0.0578,-0.0357 0.91316,-0.11452 2.02172,-0.18619 c 1.56676,-0.10131 2.09631,-0.1531 2.83917,-0.27771 c 2.2034,-0.36961 4.08067,-1.14529 4.71553,-1.94844 c 0.16058,-0.20315 0.32171,-0.58376 0.32171,-0.75991 c 0,-0.11804 -0.18519,-0.0571 -0.55939,0.18426 c -0.90871,0.58597 -2.63767,1.0523 -4.98157,1.34361 c -0.91454,0.11366 -2.98046,0.11332 -3.79686,-6.3e-4 c -3.38778,-0.47286 -5.61144,-1.98267 -7.48141,-5.07971 c -0.41836,-0.69289 -0.72164,-1.2955 -2.00822,-3.99023 c -0.60251,-1.26197 -1.17006,-2.40783 -1.26122,-2.54636 c -0.45368,-0.68946 -1.26418,-1.5122 -2.30482,-2.33964 c -1.08084,-0.8594 -1.6004,-1.43937 -1.60164,-1.78785 c -0.002,-0.54357 -3.01518,-1.70751 -4.78581,-1.84864 c -0.53535,-0.0427 -0.8861,-0.15376 -1.54758,-0.49015 c -1.13736,-0.57839 -2.24971,-1.41146 -4.26813,-3.19656 c -0.52891,-0.46777 -1.15323,-1.00948 -1.38738,-1.2038 l -0.42572,-0.35332 l 9.24088,0.0166 c 5.08249,0.009 9.32606,0.0318 9.43015,0.0504 c 0.12254,0.0219 0.20017,0.0162 0.22022,-0.0163 c 0.0223,-0.0361 5.68606,-0.0501 20.33259,-0.0501 l 20.30164,0 l -0.10746,0.42358 c -0.0591,0.23297 -0.32564,1.3509 -0.59232,2.48428 c -1.48968,6.33107 -2.19714,8.81593 -3.13262,11.00286 c -0.66044,1.54393 -1.19644,2.48137 -2.15297,3.7654 c -1.04869,1.40775 -2.26415,2.65599 -2.58624,2.65599 c -0.12428,0 -0.98629,0.4668 -1.75194,0.94873 c -1.68369,1.05978 -2.33919,1.25881 -4.57233,1.38832 c -1.65966,0.0962 -2.67889,0.30551 -2.67889,0.55001 c 0,0.20175 1.15638,0.36287 2.61098,0.36378 c 1.46401,9.1e-4 2.95368,-0.13574 4.0496,-0.37148 c 1.10494,-0.23768 1.34355,-0.1003 0.79383,0.45703 c -0.30146,0.30562 -0.99896,0.77401 -1.47715,0.99193 c -0.45401,0.20689 -1.1846,0.40947 -1.81009,0.50188 c -0.26446,0.0391 -1.06813,0.0918 -1.78593,0.11723 c -1.75739,0.0622 -2.1866,0.10378 -2.30632,0.2235 l -0.0933,0.0933 l 0.21053,0.20173 c 0.61425,0.58855 2.37679,0.64422 4.50167,0.14219 c 0.46952,-0.11093 1.24775,-0.36657 1.87751,-0.61673 c 0.19528,-0.0776 0.36176,-0.13433 0.36997,-0.12613 c 0.008,0.008 -0.0548,1.03422 -0.13991,2.28003 c -0.19947,2.91828 -0.25296,4.04854 -0.25296,5.34573 c 0,1.23357 0.0518,1.8277 0.20188,2.314 c 0.0704,0.22821 0.0903,0.35122 0.0565,0.34901 c -0.0288,-0.002 -0.19651,-0.0545 -0.37282,-0.11694 z m -17.1998,-8.65354 c 1.06883,-0.21324 2.23994,-0.67359 3.24604,-1.276 c 0.46328,-0.27739 0.71002,-0.49502 0.68771,-0.60657 c -0.0143,-0.0717 -0.0653,-0.0812 -0.40441,-0.0758 c -0.46719,0.008 -0.93774,0.15171 -1.7587,0.53894 c -0.83562,0.39415 -1.55653,0.58957 -2.38434,0.64632 c -0.89042,0.061 -1.43286,0.19928 -1.53565,0.39134 c -0.0594,0.11101 0.0134,0.29317 0.15388,0.38525 c 0.28553,0.18709 1.04685,0.18576 1.99547,-0.004 l 0,0 z m 9.35323,-6.17754 c 0.3007,-0.91036 0.20089,-2.59023 -0.25847,-4.35034 c -0.51496,-1.97316 -1.39518,-3.97614 -2.39476,-5.44937 c -0.60526,-0.89208 -0.96459,-1.26883 -2.13908,-2.24277 c -1.93893,-1.60786 -4.71551,-3.64162 -7.07503,-5.18225 c -1.61769,-1.05626 -2.28325,-1.4178 -2.70116,-1.4673 c -0.18515,-0.0219 -0.23372,-0.0103 -0.32079,0.0768 c -0.13844,0.13843 -0.1095,0.43304 0.0829,0.84425 c 0.51026,1.09041 1.69077,2.21963 4.41415,4.22236 c 0.53589,0.39409 1.15991,0.87298 1.38671,1.06421 c 1.01849,0.85873 2.64427,2.56535 3.72591,3.91119 c 1.25236,1.55826 1.92142,2.62531 2.22583,3.54984 c 0.22577,0.68569 0.45622,0.98847 0.73184,0.96151 c 0.32931,-0.0322 0.42374,-0.75166 0.18511,-1.41037 c -0.37278,-1.02905 -1.2872,-2.535 -2.82939,-4.65973 c -0.37031,-0.51019 -0.67328,-0.93713 -0.67328,-0.94877 c 0,-0.0826 0.23667,0.13898 0.94461,0.88444 c 1.35098,1.42259 1.98642,2.30098 2.71239,3.74946 c 0.87544,1.74671 1.31497,3.35202 1.42659,5.21046 c 0.0697,1.16059 0.15973,1.511 0.38012,1.47963 c 0.0749,-0.0107 0.11921,-0.072 0.17577,-0.24322 z m 1.33538,-5.62669 c 0.17903,-0.46655 -0.0675,-1.67278 -0.59375,-2.90479 c -0.86078,-2.01527 -2.18898,-3.95597 -3.04234,-4.44531 c -0.1987,-0.11394 -0.30046,-0.14214 -0.51406,-0.14249 c -0.34287,-5.5e-4 -0.44347,0.0533 -0.44347,0.23757 c 0,0.2763 0.20379,0.56091 1.25492,1.75259 c 0.85142,0.96527 1.23978,1.4744 1.68738,2.21213 c 0.44975,0.74126 0.67458,1.23501 0.96729,2.12428 c 0.13816,0.41972 0.28603,0.83186 0.3286,0.91586 c 0.14512,0.28634 0.29977,0.39519 0.35543,0.25016 l 0,0 z m 2.43078,-5.45425 c 0.3619,-0.21793 0.63636,-0.44932 1.33283,-1.12371 c 0.73609,-0.71275 1.11954,-1.02419 1.9304,-1.56794 c 1.1912,-0.79878 2.33905,-1.37655 3.6189,-1.82154 c 0.37321,-0.12977 0.76715,-0.26701 0.87544,-0.30499 c 0.64518,-0.2263 -0.65718,-0.29885 -1.50341,-0.0837 c -1.24528,0.31653 -2.80496,1.14171 -4.18864,2.21607 c -1.04649,0.81255 -2.44993,2.38195 -2.44993,2.73964 c 0,0.14346 0.0741,0.1331 0.38441,-0.0538 z m 0.9512,-3.5923 c 1.1705,-0.78606 4.02218,-3.42121 4.02218,-3.71678 c 0,-0.32432 -2.10944,1.29129 -3.58612,2.74659 c -0.34786,0.34282 -0.70333,0.7188 -0.78993,0.83551 c -0.30974,0.41742 -0.1549,0.47635 0.35387,0.13468 z" id="path6573" style="fill:#fea;fill-opacity:1;stroke:none" inkscape:connector-curvature="0" />
      <path d="m 335.43956,148.98817 c -0.003,-0.29535 -0.23052,-0.67831 -0.66205,-1.11537 c -0.3391,-0.34345 -0.45381,-0.42613 -0.89049,-0.64185 c -0.30278,-0.14957 -0.5375,-0.29748 -0.5928,-0.37355 l -0.0916,-0.12593 l 0.0933,-0.12593 c 0.053,-0.0716 0.21,-0.17297 0.36384,-0.23497 c 0.276,-0.11122 0.41864,-0.1282 1.94201,-0.23123 c 1.54529,-0.10451 2.97484,-0.50038 3.01351,-0.83449 c 0.012,-0.10403 -0.01,-0.12946 -0.1533,-0.17675 c -0.20523,-0.0677 -0.8315,-0.0436 -1.7895,0.0691 c -0.63484,0.0746 -1.02491,0.0693 -1.02491,-0.014 c 0,-0.0964 0.98305,-0.65189 2.54151,-1.43605 c 1.53273,-0.77121 2.14248,-1.10229 2.72855,-1.48153 c 0.44016,-0.28483 0.60583,-0.45311 0.66049,-0.67093 c 0.0237,-0.0942 0.0103,-0.12189 -0.0691,-0.14264 c -0.1415,-0.037 -0.45205,0.0522 -1.96547,0.56459 c -1.33969,0.45356 -1.63033,0.52055 -1.68137,0.38754 c -0.0145,-0.0377 0.0572,-0.39319 0.15916,-0.78993 c 0.2539,-0.98742 0.43495,-1.87474 1.33386,-6.53705 c 0.89006,-4.61638 1.02818,-5.281 1.47039,-7.07503 c 0.48762,-1.97826 1.13121,-5.04061 1.25592,-5.97599 c 0.0168,-0.12594 0.0405,-0.26503 0.0527,-0.30911 c 0.0208,-0.0753 0.20923,-0.0801 3.13297,-0.0801 l 3.11085,0 l 0,0.10858 c 0,0.0597 -0.0511,0.60064 -0.1136,1.20206 c -0.41424,3.98771 -0.75521,8.67575 -0.75717,10.41039 c -3.7e-4,0.34111 -0.018,0.64755 -0.0392,0.68098 c -0.0313,0.0494 -0.2055,0.0298 -0.92582,-0.10379 c -1.07574,-0.19953 -1.62207,-0.26501 -1.80428,-0.21625 l -0.13695,0.0367 l 0.11405,0.0742 c 0.28852,0.18782 1.81717,0.5374 5.655,1.29322 c 7.49243,1.47554 10.81072,2.20168 13.46316,2.94616 c 2.09253,0.58731 3.08893,0.95179 5.98437,2.18903 c 2.1424,0.91546 2.82499,1.16017 3.33339,1.19502 c 0.32058,0.022 0.35899,0.015 0.47705,-0.0865 c 0.26893,-0.23132 0.18739,-0.79976 -0.1597,-1.11333 c -0.48908,-0.44186 -2.55232,-1.28156 -5.62822,-2.29058 c -2.21085,-0.72526 -3.83591,-1.15763 -6.43392,-1.71183 c -3.58101,-0.7639 -3.87641,-0.81771 -7.94509,-1.44712 c -1.29462,-0.20028 -1.95507,-0.37659 -2.15333,-0.57485 c -0.13357,-0.13357 -0.11162,-0.26496 0.0954,-0.57136 c 0.39791,-0.58884 0.70595,-1.28651 1.18822,-2.6912 c 0.55948,-1.62954 1.34499,-4.37437 2.20138,-7.69237 l 0.42255,-1.63711 l 1.03474,0.004 c 0.5691,0.002 0.98308,0.0196 0.91996,0.0388 c -0.52598,0.16 -0.55722,0.43584 -0.0684,0.60393 c 0.29344,0.1009 1.77685,0.086 2.24386,-0.0226 c 0.20149,-0.0468 0.42302,-0.11423 0.49228,-0.14977 c 0.21754,-0.11162 0.13573,-0.31124 -0.17173,-0.41901 c -0.10353,-0.0363 0.13624,-0.0491 0.97311,-0.0518 c 0.61076,-0.002 1.11048,0.007 1.11048,0.0196 c 0,0.0128 -0.1849,0.93492 -0.4109,2.04924 c -1.06437,5.2482 -1.55725,8.29505 -1.55747,9.62768 c -2.3e-4,1.56929 0.58632,2.42382 1.61168,2.34792 c 1.33202,-0.0986 1.83183,-1.03394 3.65279,-6.83564 c 0.78364,-2.49677 1.01763,-3.32245 1.53952,-5.43271 l 0.44014,-1.7797 l 3.19667,0 l 3.19667,0 l -0.0675,0.28621 c -0.0371,0.15741 -0.33259,1.49171 -0.65654,2.9651 c -1.45139,6.60114 -2.03286,10.12043 -1.95558,11.83603 c 0.0397,0.882 0.19514,1.36032 0.49187,1.51376 c 0.16557,0.0856 0.46931,0.0869 0.62978,0.003 c 0.57315,-0.30088 1.34271,-1.76429 2.89835,-5.51153 c 1.32949,-3.20249 2.0294,-4.81303 2.49602,-5.74344 c 0.31645,-0.63099 0.59101,-1.32844 0.6594,-1.67502 c 0.1049,-0.53167 0.44236,-1.46262 1.03706,-2.86094 l 0.34569,-0.81283 l 2.18673,0 l 2.18673,0 l -0.0819,0.48085 c -0.57884,3.39774 -2.4348,10.75668 -4.048,16.05045 c -0.76373,2.50616 -1.29478,4.00922 -1.71145,4.844 c -0.0971,0.19443 -0.23097,0.49109 -0.29759,0.65925 c -0.17576,0.44367 -0.73883,2.40777 -1.1561,4.03276 l -0.36149,1.40774 l -20.05735,7.9e-4 c -11.03155,4.6e-4 -20.1604,0.0131 -20.28633,0.0282 l -0.22896,0.0274 l -0.002,-0.18007 l 0,0 z m 38.16193,-2.66329 c 0.012,-0.16815 -0.006,-0.22232 -0.11448,-0.33566 c -0.8543,-0.89606 -6.13059,-3.63003 -9.74539,-5.04969 c -4.34219,-1.70532 -12.71428,-3.40474 -14.99723,-3.04422 c -0.4955,0.0782 -0.67934,0.28574 -0.40381,0.45575 c 0.44725,0.27596 1.77278,0.55008 4.98312,1.0305 c 3.93115,0.5883 7.46451,1.50149 10.62398,2.74574 c 1.84785,0.72771 2.70262,1.13633 7.81101,3.73406 c 1.05921,0.53863 1.42564,0.68646 1.66816,0.67296 c 0.15499,-0.009 0.16075,-0.0155 0.17464,-0.20944 l 0,0 z m 3.79336,-11.45319 c 0.43348,-0.0957 0.49018,-0.31886 0.13404,-0.52758 c -0.48465,-0.28402 -1.25415,-0.45589 -1.91743,-0.42827 c -0.45311,0.0189 -0.53015,0.0654 -0.56641,0.34217 c -0.0644,0.49151 0.46441,0.71896 1.58731,0.68272 c 0.28964,-0.009 0.63276,-0.0404 0.76249,-0.069 l 0,0 z m 0.73723,-1.2659 c 0.25389,-0.068 0.0148,-0.30804 -0.58386,-0.58599 c -0.2871,-0.1333 -0.62097,-0.15427 -0.81975,-0.0515 c -0.15782,0.0816 -0.41666,0.3699 -0.41666,0.46407 c 0,0.14521 0.2693,0.19863 1.00745,0.19985 c 0.39038,6.4e-4 0.75615,-0.0113 0.81282,-0.0264 z m -9.64077,-6.49937 c 0.24781,-0.0844 0.36768,-0.20244 0.36768,-0.36196 c 0,-0.25678 -0.34262,-0.44008 -0.83117,-0.44468 c -0.90266,-0.008 -1.26124,0.53721 -0.52914,0.80528 c 0.24238,0.0887 0.73418,0.0894 0.99263,0.001 l 0,0 z m 12.17993,-1.23839 c 0.45587,-0.23574 0.32224,-1.01716 -0.2878,-1.6829 c -0.31819,-0.34725 -0.46873,-0.44178 -0.70357,-0.44178 c -0.25189,0 -0.43287,0.23682 -0.59253,0.77535 c -0.18968,0.63977 -0.012,1.0458 0.56702,1.29558 c 0.41165,0.17758 0.74349,0.19512 1.01688,0.0538 z m -35.60157,-0.59242 c 0.71792,-0.1697 1.05639,-0.3815 1.25054,-0.78255 c 0.0817,-0.16888 0.0964,-0.26142 0.0778,-0.49274 c -0.0281,-0.35026 -0.0938,-0.46153 -0.34439,-0.58307 c -0.36628,-0.17769 -1.5336,-0.1981 -2.20533,-0.0386 c -0.8879,0.21086 -0.49837,0.77582 0.53604,0.77744 c 0.41759,6.5e-4 0.60504,0.0298 0.60504,0.094 c 0,0.021 -0.20092,0.20133 -0.44648,0.40072 c -0.24557,0.19939 -0.47941,0.40132 -0.51966,0.44873 c -0.30126,0.35493 0.0439,0.41298 1.04645,0.17599 l 0,0 z m 24.18085,0.10714 c 0.0302,-0.0302 0.055,-0.15307 0.055,-0.27298 c 0,-0.16684 -0.0242,-0.24078 -0.10303,-0.31496 c -0.1688,-0.15881 -0.3918,-0.22722 -0.73828,-0.22648 c -0.56069,10e-4 -0.57679,0.10525 -0.0697,0.45067 c 0.25811,0.17585 0.70552,0.417 0.77597,0.41825 c 0.0138,2.5e-4 0.0499,-0.0243 0.0801,-0.0545 z m -10.43798,-1.75751 c 0.71486,-0.16224 0.72942,-0.50247 0.0292,-0.68282 c -0.80065,-0.20622 -2.20557,-0.0897 -2.47232,0.20507 c -0.22869,0.25269 0.16782,0.46193 1.07563,0.5676 c 0.27164,0.0316 1.06067,-0.0202 1.36747,-0.0898 z" id="path6575" style="fill:#fea;fill-opacity:1;stroke:none" inkscape:connector-curvature="0" />
      <path d="m 367.08386,121.41936 c 0.0347,-0.11964 0.21043,-0.78421 0.3905,-1.47683 c 1.49753,-5.76009 3.19409,-11.1112 3.95314,-12.4685 c 0.40108,-0.7172 1.27928,-1.22465 2.11676,-1.22313 c 0.43929,8e-4 0.93097,0.18587 1.17375,0.4418 c 0.74677,0.78719 0.83746,4.06374 0.21968,7.93699 c -0.18449,1.15669 -0.30574,1.73464 -0.96434,4.59679 c -0.30058,1.30624 -0.5465,2.38295 -0.5465,2.39269 c 0,0.01 -1.44137,0.0177 -3.20305,0.0177 l -3.20304,0 l 0.0631,-0.21751 l 0,0 z m 5.06119,-5.12059 c 0.55509,-0.12625 0.77162,-0.35505 0.81152,-0.85751 c 0.041,-0.51566 -0.14417,-0.88139 -0.55573,-1.09796 c -0.1553,-0.0817 -0.28191,-0.10123 -0.73703,-0.11363 c -0.83869,-0.0228 -0.84694,0.0297 -0.0979,0.62314 c 0.49697,0.39373 0.65622,0.54145 0.61956,0.57475 c -0.01,0.009 -0.27995,0.037 -0.60015,0.0622 c -0.64536,0.0509 -0.8854,0.13554 -0.9899,0.34914 c -0.0521,0.10648 -0.0504,0.14047 0.0115,0.23493 c 0.0816,0.12462 0.21409,0.20562 0.4158,0.25429 c 0.2441,0.0589 0.79791,0.0444 1.12234,-0.0294 l 0,0 z" id="path6577" style="fill:#fea;fill-opacity:1;stroke:none" inkscape:connector-curvature="0" />
      <path d="m 356.20434,121.64791 l -0.98887,-0.0128 l 0.38196,-1.54464 c 0.21007,-0.84956 0.66171,-2.70894 1.00364,-4.13195 c 2.03799,-8.48171 3.41858,-13.33038 4.62229,-16.233642 c 0.59249,-1.429069 1.0732,-1.941954 2.0585,-2.196301 c 0.71843,-0.185457 1.15049,0.0055 2.06762,0.913862 c 0.55895,0.553611 0.7196,0.812605 0.79692,1.284781 c 0.14913,0.91067 -0.10865,3.66526 -0.55475,5.92786 c -0.17152,0.86997 -0.27929,1.30434 -0.68735,2.77048 c -0.71086,2.55411 -1.83607,7.21464 -2.69213,11.15061 l -0.44321,2.03779 l -1.09726,0.0229 c -0.60349,0.0126 -1.15907,0.006 -1.23463,-0.014 c -0.0756,-0.0203 -0.41703,-0.0489 -0.75881,-0.0637 c -0.5384,-0.0233 -0.8567,-0.003 -1.43231,0.0927 c -0.029,0.005 -0.49773,0.003 -1.04161,-0.004 l 0,0 z m 6.14732,-11.06655 c 0.0684,-0.15011 0.0144,-0.40313 -0.11047,-0.51804 c -0.51356,-0.47246 -1.69017,-0.78259 -1.95695,-0.51581 c -0.19598,0.19598 -0.0333,0.56826 0.34345,0.78608 c 0.24096,0.1393 1.07511,0.34916 1.40912,0.35451 c 0.23725,0.004 0.26946,-0.007 0.31485,-0.10674 z m -0.0182,-1.70722 c 0.17878,-0.23994 -0.0493,-0.56865 -0.51517,-0.74256 c -0.84988,-0.31723 -1.56398,-0.18383 -1.42136,0.26552 c 0.0586,0.18469 0.44126,0.3481 1.19275,0.50938 c 0.44762,0.0961 0.65482,0.0871 0.74378,-0.0323 z" id="path6579" style="fill:#fea;fill-opacity:1;stroke:none" inkscape:connector-curvature="0" />
      <path d="m 379.5819,121.03012 c 0.75513,-1.59026 1.30641,-2.35122 1.93301,-2.66825 c 0.4765,-0.24108 1.28777,-0.1961 1.89482,0.10506 c 0.20804,0.1032 0.27179,0.16477 0.36635,0.35379 c 0.10607,0.21205 0.11392,0.27255 0.10692,0.82416 c -0.004,0.32742 -0.0505,0.89354 -0.10303,1.25805 c -0.0525,0.36452 -0.0955,0.67877 -0.0955,0.69835 c 0,0.0196 -0.98791,0.0356 -2.19535,0.0356 l -2.19536,0 l 0.28812,-0.60675 z" id="path6581" style="fill:#fea;fill-opacity:1;stroke:none" inkscape:connector-curvature="0" />
      <path d="m 342.15018,121.62678 c 1e-5,-0.0181 0.0726,-0.49211 0.16141,-1.05324 c 0.22654,-1.43212 0.47973,-2.7753 1.23675,-6.56121 c 0.36261,-1.8134 0.85694,-4.32744 1.09852,-5.58675 c 0.60268,-3.14169 0.77724,-3.90273 1.13437,-4.94565 c 0.3246,-0.94791 0.64832,-1.5073 1.19215,-2.06003 c 0.52112,-0.52964 0.77468,-0.58773 1.48116,-0.33931 c 1.4723,0.5177 1.94266,1.05208 2.07684,2.35951 c 0.0878,0.85592 -0.0172,1.92093 -0.50967,5.16865 c -0.36844,2.42966 -0.67268,4.68964 -0.99868,7.41848 c -0.20128,1.68483 -0.56978,4.9712 -0.60847,5.42647 l -0.0136,0.16028 l -3.12538,0.0229 c -1.71896,0.0126 -3.12538,0.008 -3.12538,-0.0101 z m 5.30389,-10.07102 c 0.0654,-0.0243 0.1006,-0.0694 0.0914,-0.11725 c -0.0136,-0.0704 -0.0978,-0.1437 -0.52229,-0.45464 c -0.0734,-0.0537 -0.11688,-0.1149 -0.0967,-0.13591 c 0.0202,-0.021 0.20019,-0.0523 0.40004,-0.0694 c 0.41507,-0.0357 0.61628,-0.13068 0.74556,-0.35203 c 0.10469,-0.17926 0.075,-0.3445 -0.0802,-0.4462 c -0.0605,-0.0397 -0.32292,-0.10012 -0.58313,-0.13438 c -0.26022,-0.0343 -0.76143,-0.12573 -1.1138,-0.20326 c -0.76247,-0.16775 -0.8769,-0.17241 -1.01637,-0.0414 c -0.0979,0.0919 -0.10599,0.13677 -0.10599,0.58569 c 0,0.51601 0.0817,0.93822 0.21776,1.12521 c 0.12242,0.16827 0.36611,0.26516 0.7439,0.29577 c 0.40967,0.0332 1.17063,0.003 1.31988,-0.0522 z" id="path6583" style="fill:#fea;fill-opacity:1;stroke:none" inkscape:connector-curvature="0" />
      <path d="m 324.74568,149.12416 l -8.23351,-0.0117 l -0.90221,-0.71104 c -0.49621,-0.39107 -1.59868,-1.20865 -2.44993,-1.81683 c -1.69724,-1.21262 -2.23163,-1.6373 -2.7251,-2.16571 c -0.72377,-0.77501 -0.79724,-1.34622 -0.25095,-1.95091 c 0.37969,-0.42027 1.83494,-1.23781 2.79369,-1.56945 c 0.63916,-0.2211 1.13117,-0.30779 1.73612,-0.30592 c 1.45034,0.004 2.69617,0.64596 4.45879,2.29581 c 1.16742,1.09273 2.10729,2.18268 3.00039,3.47947 c 1.07579,1.56206 1.68123,2.2411 1.99817,2.2411 c 0.10226,0 0.14364,-0.0288 0.18117,-0.12593 c 0.12271,-0.31769 -0.10221,-0.94911 -0.61353,-1.72242 c -0.37377,-0.56527 -0.62789,-1.04356 -0.62796,-1.18189 c -2.9e-4,-0.62682 5.12402,0.61681 8.56327,2.07824 c 0.23927,0.10168 0.75444,0.34453 1.14482,0.53968 c 0.39039,0.19515 0.97769,0.47157 1.30511,0.61427 c 0.32742,0.14269 0.63652,0.27788 0.68689,0.30041 c 0.0568,0.0254 -0.27382,0.0378 -0.87007,0.0327 c -0.52891,-0.005 -4.66673,-0.0135 -9.19516,-0.0199 z" id="path6585" style="fill:#fea;fill-opacity:1;stroke:none" inkscape:connector-curvature="0" />
    </g>
  </g>
</svg>
