<?xml version="1.0" encoding="UTF-8" standalone="no"?>
<!-- Created with Inkscape (http://www.inkscape.org/) -->

<svg xmlns:dc="http://purl.org/dc/elements/1.1/" xmlns:cc="http://creativecommons.org/ns#" xmlns:rdf="http://www.w3.org/1999/02/22-rdf-syntax-ns#" xmlns:svg="http://www.w3.org/2000/svg" xmlns="http://www.w3.org/2000/svg" xmlns:sodipodi="http://sodipodi.sourceforge.net/DTD/sodipodi-0.dtd" xmlns:inkscape="http://www.inkscape.org/namespaces/inkscape" version="1.1" width="250.01285" height="249.18723" id="svg4353" inkscape:version="0.48.4 r9939" sodipodi:docname="back3.svg">
  <sodipodi:namedview pagecolor="#ffffff" bordercolor="#666666" borderopacity="1" objecttolerance="10" gridtolerance="10" guidetolerance="10" inkscape:pageopacity="0" inkscape:pageshadow="2" inkscape:window-width="1680" inkscape:window-height="991" id="namedview32" showgrid="false" fit-margin-top="0" fit-margin-left="0" fit-margin-right="0" fit-margin-bottom="0" inkscape:zoom="3.1101113" inkscape:cx="125.00642" inkscape:cy="124.59361" inkscape:window-x="0" inkscape:window-y="0" inkscape:window-maximized="1" inkscape:current-layer="svg4353" />
  <defs id="defs4355">
    <filter color-interpolation-filters="sRGB" id="filter3801-5-7">
      <feGaussianBlur stdDeviation="2.8378378" id="feGaussianBlur3803-9-4" />
    </filter>
    <filter color-interpolation-filters="sRGB" id="filter3813-3-8">
      <feGaussianBlur stdDeviation="0.70945946" id="feGaussianBlur3815-5-5" />
    </filter>
    <filter color-interpolation-filters="sRGB" id="filter3801-6-7-8">
      <feGaussianBlur stdDeviation="2.8378378" id="feGaussianBlur3803-7-0-2" />
    </filter>
    <filter color-interpolation-filters="sRGB" id="filter3874-5-8-6">
      <feGaussianBlur stdDeviation="0.43693231" id="feGaussianBlur3876-4-1-0" />
    </filter>
    <filter color-interpolation-filters="sRGB" id="filter3801-5-7-3">
      <feGaussianBlur stdDeviation="2.8378378" id="feGaussianBlur3803-9-4-6" />
    </filter>
    <filter color-interpolation-filters="sRGB" id="filter3813-3-8-7">
      <feGaussianBlur stdDeviation="0.70945946" id="feGaussianBlur3815-5-5-5" />
    </filter>
    <filter color-interpolation-filters="sRGB" id="filter3801-6-7-8-3">
      <feGaussianBlur stdDeviation="2.8378378" id="feGaussianBlur3803-7-0-2-5" />
    </filter>
    <filter color-interpolation-filters="sRGB" id="filter3874-5-8-6-6">
      <feGaussianBlur stdDeviation="0.43693231" id="feGaussianBlur3876-4-1-0-2" />
    </filter>
  </defs>
  <metadata id="metadata4358">
    <rdf:RDF>
      <cc:Work rdf:about="">
        <dc:format>image/svg+xml</dc:format>
        <dc:type rdf:resource="http://purl.org/dc/dcmitype/StillImage" />
        <dc:title></dc:title>
      </cc:Work>
    </rdf:RDF>
  </metadata>
  <g id="g3025" transform="matrix(2.5917565,0,0,2.6327824,-4.1722025,-0.04224889)">
    <rect width="80" height="130" rx="6.4536452" ry="10.334008" x="206.39877" y="166.01927" transform="matrix(0.92017113,0,0,0.58487016,-171.72856,-82.452367)" id="rect2985-9-6" style="opacity:0.503;fill:black;fill-opacity:1;stroke:none;filter:url(#filter3801-5-7-3)" />
    <rect width="84" height="84" rx="5.9384584" ry="6.0440531" x="3.8174565" y="2.2149863" id="rect2985-3-7-4" style="fill:#00bfff;fill-opacity:1;stroke:black;stroke-opacity:1;filter:url(#filter3813-3-8-7)" />
    <rect width="80" height="130" rx="6.4909925" ry="10.313722" x="206.39877" y="166.01927" transform="matrix(0.91487671,0,0,0.58602057,-180.05997,-90.437388)" id="rect2985-5-8-6" style="opacity:0.23300021;fill:black;fill-opacity:1;stroke:none;filter:url(#filter3801-6-7-8-3)" />
    <path inkscape:connector-curvature="0" style="fill:black;fill-opacity:1" id="path4926" d="m 49.585074,80.933188 c 0.13793,-0.551765 0.797767,-2.397467 1.466219,-4.101547 c 1.412585,-3.601331 1.342057,-3.285772 0.734335,-3.285772 c -1.367312,0 -4.25034,-1.225901 -5.538339,-2.354939 C 45.444707,70.4874 44.908864,69.90864 45.056423,69.904806 c 0.147644,-0.0042 1.351433,0.567568 2.675161,1.269823 c 1.901043,1.00854 2.824409,1.276816 4.394605,1.276816 c 2.679299,0 4.093236,-0.663764 6.401905,-3.005273 c 2.069381,-2.0988 3.810533,-5.386776 6.329096,-11.951774 c 0.73121,-1.906111 1.801122,-4.206409 2.377592,-5.111768 c 1.666148,-2.616905 2.177665,-4.185158 2.177665,-6.676178 c 0,-2.589986 -0.49378,-3.359078 -2.401834,-3.740681 c -0.863143,-0.172637 -1.531426,0.08794 -3.364053,1.311735 c -2.599565,1.735923 -5.242038,4.60944 -5.607516,6.097849 c -0.135819,0.552922 -0.468947,1.908214 -0.740416,3.011752 c -0.766853,3.117788 -0.552482,3.648065 1.474835,3.648065 c 1.856108,0 2.762582,-0.7405 3.871432,-3.162622 c 0.519372,-1.13435 1.762015,-2.880224 2.761483,-3.87971 c 0.999469,-0.999485 1.817255,-1.957955 1.817255,-2.129942 c 0,-0.171978 0.159047,-0.312687 0.3534,-0.312687 c 0.446479,0 0.08024,1.060764 -0.682474,1.977095 c -0.545303,0.655039 -0.53635,0.683183 0.1381,0.435744 c 0.626051,-0.229659 0.603245,-0.13913 -0.172899,0.686992 c -0.491584,0.523325 -1.308525,1.150221 -1.815396,1.393107 c -0.637201,0.305357 -1.146691,1.075656 -1.651198,2.496569 c -1.043306,2.93842 -1.743601,3.58987 -3.859015,3.58987 c -1.299234,0 -2.000458,-0.219515 -2.77069,-0.867401 c -0.870914,-0.732594 -1.315282,-0.840084 -2.85904,-0.691595 c -1.460392,0.140464 -2.009496,0.02872 -2.731245,-0.555701 l -0.903433,-0.731505 l 0.668283,-3.957797 c 0.845828,-5.009008 1.123632,-5.638556 3.740343,-8.476556 c 2.958877,-3.209052 2.841303,-2.993609 4.925972,-9.028448 c 1.025061,-2.967526 2.681664,-7.289483 3.681302,-9.60436 c 3.796512,-8.791643 4.289616,-10.077776 4.29612,-11.205335 c 0.01436,-2.4275109 -2.503783,-3.135028 -4.40187,-1.236966 c -0.601725,0.601801 -3.096216,5.186308 -5.706592,10.48818 C 52.522919,31.316813 49.65104,36.462688 47.862757,38.482589 c -1.006395,1.136758 -1.161387,1.199549 -1.680168,0.680768 c -0.75486,-0.754852 -0.430431,-2.083909 2.845188,-11.65717 c 1.393495,-4.072432 2.598551,-7.650662 2.678032,-7.951635 c 0.0794,-0.300964 0.566419,-1.569959 1.08216,-2.819992 c 1.118395,-2.710416 1.219499,-4.837765 0.270708,-5.696406 c -0.840591,-0.760696 -2.211619,-0.773357 -3.272578,-0.03024 c -0.787463,0.551545 -2.991565,4.445596 -2.991565,5.28519 c 0,0.224068 -0.489134,1.464125 -1.086974,2.755681 c -0.597755,1.291556 -1.357683,3.288061 -1.688615,4.436677 c -0.330932,1.148625 -1.055891,2.993583 -1.610907,4.099917 c -0.555017,1.106325 -1.621466,3.650853 -2.369822,5.654495 c -1.619269,4.335573 -4.39115,10.010221 -5.237062,10.712307 c -0.341659,0.283539 0.816104,-2.307132 1.530505,-3.623267 c 1.188079,-2.189861 5.284017,-12.194997 6.861899,-16.761488 c 1.711336,-4.952831 4.910937,-12.192201 5.81741,-13.162581 c 1.781948,-1.9076227 4.603655,-1.2413918 5.436982,1.283768 c 0.457967,1.387584 0.08109,3.374798 -1.077261,5.675062 c -0.811957,1.612834 -6.941041,19.77857 -6.941041,20.572207 c 0,1.235319 0.816687,0.479066 2.796029,-2.589176 c 2.108066,-3.267662 8.100064,-14.955974 9.715448,-18.951433 c 1.326431,-3.280501 4.073302,-7.3635 5.256651,-7.8133919 c 1.233182,-0.4688879 2.44964,-0.1829163 3.441676,0.8091027 c 1.342564,1.3425382 0.827837,3.6513682 -2.509779,11.2582522 c -1.628561,3.71176 -3.651486,8.718615 -4.495287,11.126335 c -0.843801,2.407721 -1.616229,4.594237 -1.716488,4.858932 c -0.140803,0.371957 0.128892,0.351246 1.187824,-0.0912 c 0.753593,-0.31485 1.757876,-0.572459 2.231807,-0.572459 c 1.204126,0 2.998575,1.730898 3.589489,3.462176 c 0.402642,1.180003 0.713556,1.500073 1.64123,1.689806 c 2.260018,0.462215 2.655058,1.205968 2.515692,4.736289 c -0.120447,3.051915 -0.199336,3.29905 -2.564343,8.030466 c -1.342057,2.684908 -2.859716,6.006957 -3.3725,7.382327 c -2.114401,5.670686 -4.535915,8.995709 -8.346532,11.460815 c -2.770774,1.792362 -3.454684,2.70577 -4.908065,6.554912 c -0.977255,2.588111 -1.80298,3.627414 -1.307426,1.645555 z m 5.713181,-26.813249 c 0.825809,-0.609868 2.075631,-4.121337 2.075631,-5.831744 c 0,-1.072573 0.1419,-1.373182 0.648265,-1.373182 c 0.704857,0 1.694697,-0.860753 4.914991,-4.274167 c 2.395668,-2.539257 2.652187,-3.62722 1.136471,-4.819504 c -2.007638,-1.5792 -3.604524,-0.890873 -7.575371,3.265323 l -2.855577,2.988912 l 0.740923,0.74094 c 0.407542,0.407508 1.230902,0.7591 1.829755,0.781305 c 1.387584,0.05144 1.108344,0.587586 -0.306015,0.587586 c -0.594123,0 -1.361399,-0.324985 -1.748669,-0.740644 c -0.586606,-0.629632 -0.754437,-0.663013 -1.119831,-0.222699 c -0.880965,1.0615 -1.940741,7.983824 -1.364947,8.915527 c 0.355934,0.575905 2.836995,0.563818 3.624374,-0.01765 z M 54.59627,53.403156 c 0.874715,-1.471321 0.739656,-2.098538 -0.505689,-2.34759 c -1.182673,-0.236543 -1.505665,-0.85729 -0.445973,-0.85729 c 0.870154,0 2.270069,1.012603 2.270069,1.641965 c 0,0.278404 -0.429165,0.96679 -0.953605,1.529746 l -0.953604,1.023558 z m -1.026835,-6.331791 c -0.835186,-0.83521 -0.711023,-0.89877 0.538292,-0.27554 c 0.664229,0.331363 1.508368,0.46246 2.097677,0.325763 c 0.734672,-0.170433 0.846588,-0.134341 0.438877,0.141571 c -0.821671,0.556047 -2.427088,0.455906 -3.074846,-0.191794 z m 8.638103,-7.918364 C 61.413571,38.790049 61.079936,38.159673 61.68183,38.159673 c 0.448929,0 1.735493,1.011539 1.528386,1.201652 c -0.100006,0.09179 -0.551215,-0.0017 -1.002678,-0.208324 z M 31.1104,78.744357 c 0,-0.150482 0.412102,-1.48057 0.912808,-2.955701 c 1.37863,-4.062406 1.669273,-6.41982 0.89203,-7.23655 C 32.569356,68.188723 31.018671,65.148794 29.469339,61.796743 C 26.352513,55.053475 25.584815,54.050999 21.703923,51.656193 C 20.30519,50.793075 18.882723,49.616222 18.542922,49.04096 C 17.425794,47.149807 14.32603,43.86668 12.302007,42.430816 C 9.8114012,40.663945 9.6427255,39.554115 11.603401,37.832652 c 1.13571,-0.997206 1.550346,-1.132205 3.477405,-1.132205 c 1.203281,0 2.718659,0.221787 3.367431,0.492867 c 1.375674,0.574781 3.433737,2.789272 3.744989,4.029676 c 0.167578,0.667473 0.52841,0.902994 1.604826,1.047369 c 0.763728,0.102439 2.187294,0.58213 3.163535,1.065985 c 2.702273,1.33932 6.496505,1.227556 9.540691,-0.281022 c 1.504313,-0.745476 2.07428,-0.9103 1.693683,-0.489743 c -1.036887,1.145821 -4.223396,2.290983 -6.44929,2.317766 c -1.153447,0.01385 -2.097423,0.03902 -2.097676,0.05583 c -1.69e-4,0.01681 0.902503,0.652413 2.006032,1.41245 c 1.103529,0.760037 2.006455,1.447106 2.006455,1.526815 c 0,0.440356 -2.291523,-0.535396 -4.167142,-1.774431 c -2.107812,-1.39239 -4.718949,-2.83702 -5.127842,-2.83702 c -0.112169,0 -0.10085,0.410405 0.02534,0.912014 c 0.32181,1.28202 -0.173575,1.139604 -0.634413,-0.182401 C 23.362046,42.862616 22.717666,42.508735 22.717666,43.42564 c 0,0.287905 0.169352,0.969002 0.376374,1.513536 c 0.324091,0.852408 0.301961,0.928299 -0.158962,0.545751 c -0.294443,-0.244373 -0.648012,-0.966511 -0.785774,-1.604733 c -0.37308,-1.7292 -1.411993,-3.579455 -2.693743,-4.797239 c -0.991444,-0.941982 -1.459462,-1.099078 -3.590249,-1.205047 c -1.960422,-0.0975 -2.68158,0.0234 -3.607565,0.604631 c -1.567323,0.983792 -1.275498,1.885248 1.220175,3.769491 c 1.084018,0.818445 2.78564,2.489727 3.781393,3.713965 c 2.625833,3.228471 2.851269,3.440831 5.458351,5.142006 c 1.304133,0.851006 2.781586,1.985018 3.283221,2.520016 c 0.501635,0.534999 2.389502,3.957476 4.195269,7.605508 c 2.253091,4.551599 3.606297,6.865674 4.312928,7.374944 c 0.82015,0.591168 1.784904,0.779262 4.74243,0.924566 c 3.86856,0.190062 3.991456,0.517405 0.348838,0.929524 c -1.895384,0.21443 -3.475715,0 -5.208927,-0.709291 c -0.450365,-0.184124 -0.552145,0.180137 -0.574866,2.058054 c -0.02027,1.673944 -0.792446,4.570748 -1.57501,6.374234 c -0.464006,1.069305 17.682464,3.136912 17.394575,3.528684 C 49.348235,82.106011 31.106599,79.18788 31.110738,78.744391 z m 17.320297,-4.141389 c -1.730341,-0.912825 -2.214914,-1.329573 -1.905604,-1.638933 c 0.126021,-0.126038 1.177013,0.363713 2.335528,1.088326 c 2.267282,1.418184 1.960169,1.811443 -0.429924,0.550607 z M 37.309505,72.086643 c 0,-0.200646 0.369364,-0.366745 0.820827,-0.369152 c 0.451463,-0.0034 1.683293,-0.233908 2.737411,-0.514516 c 2.447106,-0.651441 2.136108,-0.04857 -0.356863,0.691781 c -2.173357,0.645411 -3.201375,0.707028 -3.201375,0.191887 z m 8.924523,-5.708417 c -0.779186,-4.512172 -1.379475,-7.044613 -1.976132,-8.336624 c -0.381527,-0.826258 -2.27632,-3.010308 -4.368084,-5.035075 c -2.031878,-1.966722 -3.60275,-3.723999 -3.490834,-3.905057 c 0.334479,-0.541181 7.732728,6.87228 8.510224,8.527725 c 0.681375,1.450755 2.109079,9.612748 1.745206,9.97668 c -0.09773,0.09769 -0.286842,-0.454731 -0.42038,-1.227649 z m 2.211112,-4.829843 c -0.133538,-0.608009 -0.641677,-1.932244 -1.129122,-2.942744 c -0.97793,-2.027157 -1.253031,-3.806774 -0.340983,-2.205665 c 0.687204,1.206314 2.13425,5.832589 1.898172,6.068634 c -0.101865,0.101889 -0.294528,-0.312215 -0.428067,-0.920225 z m 10.387955,-6.141619 c 0,-0.207174 0.246214,-0.581039 0.547246,-0.830818 c 0.834425,-0.692558 0.655951,-1.432476 -0.456024,-1.890477 C 58.105771,52.348329 58.042507,52.243593 58.5808,52.11644 c 0.362859,-0.08571 0.896337,-0.06504 1.185628,0.04595 c 0.773526,0.296825 0.642944,2.194532 -0.203728,2.960752 c -0.401291,0.363155 -0.729605,0.490781 -0.729605,0.283607 z m 2.006455,-5.938101 c -0.128386,-0.207724 0.185738,-0.364811 0.729605,-0.364811 c 0.543782,0 0.857991,0.157087 0.729604,0.364811 c -0.123993,0.200637 -0.452307,0.364802 -0.729604,0.364802 c -0.277297,0 -0.605611,-0.164165 -0.729605,-0.364802 z m 0.81635,-0.981942 c -0.353569,-0.09224 -0.558649,-0.304022 -0.455686,-0.470645 c 0.234642,-0.379651 1.645791,-0.03607 1.645791,0.400716 c 0,0.337217 -0.135059,0.345148 -1.190105,0.06994 z M 33.843841,46.185408 c -0.128302,-0.207723 0.185822,-0.36481 0.729689,-0.36481 c 0.543783,0 0.857991,0.157087 0.729605,0.36481 c -0.124079,0.200637 -0.452392,0.364803 -0.729605,0.364803 c -0.277297,0 -0.60561,-0.164166 -0.729689,-0.364803 z m 33.022338,-1.99762 c -0.287771,-0.34671 -0.315475,-0.55603 -0.07348,-0.55603 c 0.440905,0 0.954956,0.692111 0.701985,0.945108 c -0.0919,0.09182 -0.374601,-0.08328 -0.628417,-0.389078 z M 51.172162,41.40877 c 0,-0.18186 0.328314,-0.330653 0.729605,-0.330653 c 0.401291,0 0.729604,0.06293 0.729604,0.139856 c 0,0.07695 -0.328313,0.225715 -0.729604,0.330653 c -0.401291,0.104939 -0.729605,0.04198 -0.729605,-0.139856 z m 0.668284,-1.189717 C 50.122521,39.682746 49.699692,39.254088 50.88853,39.254088 c 0.512869,0 1.320012,0.322866 1.793689,0.717476 c 0.977255,0.81417 0.975312,0.814753 -0.841773,0.247489 z m -9.697204,-1.593668 c -0.652151,-0.08092 -1.185629,-0.300896 -1.185629,-0.48883 c 0,-0.466675 1.021598,-0.384457 2.553616,0.205519 c 1.276259,0.491465 0.913906,0.566495 -1.367987,0.283311 z m 0.547161,-1.47666 c -1.648832,-0.548445 -2.307149,-1.177891 -1.232,-1.177891 c 0.577991,0 3.876838,1.411402 3.876838,1.658697 c 0,0.275008 -0.821502,0.125658 -2.644838,-0.480806 z M 55.710779,31.787162 C 55.0142,31.260289 55.014876,31.25137 55.753856,31.23995 c 0.413116,-0.0068 1.069744,0.229423 1.459294,0.524009 c 0.696579,0.526873 0.695819,0.535793 -0.04308,0.547212 c -0.413116,0.0068 -1.069743,-0.229422 -1.459209,-0.524009 z m 0.477478,-1.497083 c -1.353121,-0.734065 -1.288168,-1.416639 0.06842,-0.715313 c 1.067293,0.551908 1.791492,1.301944 1.23031,1.274172 c -0.162341,-0.0084 -0.746582,-0.259517 -1.298389,-0.558859 z M 45.426462,28.797911 c -0.250775,-0.101197 -0.456024,-0.319115 -0.456024,-0.484252 c 0,-0.372818 1.397804,-0.03353 1.668851,0.405084 c 0.210908,0.341245 -0.455518,0.384753 -1.212827,0.07914 z m 0.144942,-1.202454 c -0.77927,-0.363358 -1.231071,-0.763221 -1.013913,-0.897393 c 0.464809,-0.287289 2.601846,0.744639 2.601846,1.256401 c 0,0.195494 -0.04139,0.342149 -0.09122,0.325907 c -0.04983,-0.01622 -0.723692,-0.324454 -1.496711,-0.684915 z m 16.453775,-7.92757 c -0.351119,-0.09175 -0.638468,-0.303583 -0.638468,-0.47073 c 0,-0.167155 0.328314,-0.218053 0.729605,-0.113106 c 0.401291,0.104939 0.729689,0.335814 0.729689,0.513054 c 0,0.177241 -0.04139,0.303211 -0.09122,0.279941 C 62.704955,19.853736 62.3763,19.759649 62.025181,19.667887 z M 48.282546,19.093173 c -1.211813,-0.618297 -1.394763,-1.364034 -0.33279,-1.357066 c 1.035451,0.0068 1.558455,0.336937 1.869538,1.180037 c 0.279155,0.756523 -0.275692,0.820438 -1.536748,0.177029 z m 12.739363,-1.362649 c 0,-0.200646 0.318685,-0.364803 0.708066,-0.364803 c 0.389466,0 0.809593,0.164157 0.933587,0.364803 c 0.127879,0.206904 -0.178643,0.364811 -0.708066,0.364811 c -0.51346,0 -0.933587,-0.164166 -0.933587,-0.364811 z" />
    <path inkscape:connector-curvature="0" style="fill:#fea;fill-opacity:1;stroke:none" id="path6449" d="m 49.225212,81.53417 c -0.04308,-0.04257 -2.368681,-0.430736 -5.210574,-0.869596 c -5.35207,-0.826503 -8.035534,-1.288397 -9.660175,-1.662795 c -0.872907,-0.201152 -1.800362,-0.500384 -1.965464,-0.634125 l -0.139156,-0.112727 l 0.205705,-0.525217 c 0.842019,-2.149867 1.385869,-4.62521 1.393048,-6.340541 c 0.0034,-0.885704 0.117187,-1.527516 0.288827,-1.633595 c 0.02635,-0.0163 0.399619,0.0887 0.829391,0.233342 c 1.362835,0.458684 2.211155,0.585803 3.637769,0.5451 c 1.144849,-0.03269 2.631645,-0.222488 3.334398,-0.425735 c 0.376188,-0.108799 0.417559,-0.21726 0.120058,-0.314732 c -0.23803,-0.07796 -1.270102,-0.191202 -2.321795,-0.254686 c -1.677567,-0.101264 -2.840829,-0.196169 -3.316179,-0.270557 c -0.87659,-0.13717 -1.666375,-0.45414 -2.058291,-0.82608 C 33.989551,68.088024 33.324511,67.082812 32.576366,65.742047 C 31.974911,64.664153 31.769021,64.268885 30.135553,61.056132 C 27.55337,55.977458 26.407009,53.953907 25.795402,53.394929 C 25.073188,52.734864 24.053473,51.972656 22.514681,50.94267 c -0.643679,-0.430836 -1.389678,-0.94846 -1.657777,-1.150271 c -0.627563,-0.472402 -1.485647,-1.328484 -2.258565,-2.253311 l -0.612536,-0.732924 l 6.280275,0 l 6.280276,0 l 0.870754,0.431014 c 0.873718,0.432483 1.767099,0.770502 2.036414,0.770502 c 0.07931,0 0.167958,-0.02855 0.196954,-0.06352 c 0.06935,-0.08354 -0.145355,-0.289401 -0.80536,-0.772192 l -0.500081,-0.365799 l 9.625181,0 l 9.625173,0 l -0.02441,0.10814 c -0.195028,0.865128 -0.544838,2.744759 -0.874317,4.697926 c -0.225174,1.334886 -0.421833,2.485267 -0.437011,2.556412 c -0.02534,0.118723 0.02297,0.169697 0.587628,0.620147 c 1.050933,0.838361 1.291817,0.905079 2.928579,0.811129 c 1.761145,-0.101095 2.001751,-0.04983 2.871397,0.611752 c 0.965058,0.734165 1.379762,0.877189 2.650624,0.914159 c 0.957836,0.02787 1.493494,-0.04426 1.959755,-0.263799 c 0.882384,-0.415524 1.284697,-1.03801 2.216949,-3.430181 c 0.389043,-0.998286 0.719654,-1.612876 1.052158,-1.955911 c 0.111096,-0.11461 0.399981,-0.325527 0.641972,-0.468702 c 0.63231,-0.374111 1.218874,-0.844637 1.778308,-1.426505 c 0.454858,-0.473103 0.59594,-0.673233 0.52477,-0.744403 c -0.01605,-0.01605 -0.223147,0.03277 -0.460188,0.108537 c -0.237033,0.07576 -0.442181,0.126536 -0.455872,0.112845 c -0.01368,-0.01368 0.118689,-0.206888 0.294181,-0.429325 c 0.511441,-0.64824 0.852298,-1.255346 0.911035,-1.622598 l 0.03193,-0.199623 l 0.762833,0 l 0.762825,0 l 0,0.186439 c 0,0.258148 -0.162485,1.167114 -0.290009,1.622318 c -0.268065,0.956899 -0.777243,2.039025 -1.600797,3.402096 c -0.907884,1.502633 -1.612133,3.006794 -2.758249,5.891148 c -1.970904,4.960053 -3.009767,7.157389 -4.362661,9.22764 c -0.602113,0.921382 -1.13272,1.591017 -1.82304,2.300705 c -1.404223,1.443642 -2.648757,2.31192 -3.825179,2.668741 c -0.733262,0.222403 -1.311109,0.289688 -2.4977,0.290811 c -1.748653,0.0017 -2.150628,-0.118892 -4.806058,-1.441286 c -1.854967,-0.923771 -2.28365,-1.1188 -2.338527,-1.063923 c -0.05363,0.05363 0.135354,0.291419 0.582332,0.732518 c 0.81521,0.804491 1.491644,1.276614 2.645311,1.846327 c 1.274114,0.629185 2.563566,1.036895 3.453839,1.092042 l 0.474083,0.02939 l -0.02922,0.213459 c -0.01613,0.117405 -0.215038,0.692516 -0.442096,1.278033 c -1.299208,3.350218 -2.014909,5.330708 -2.164167,5.98867 c -0.104871,0.462291 -0.113596,0.482715 -0.206271,0.482715 c -0.04671,0 -0.09388,-0.009 -0.104896,-0.01985 l 0,0 z m 1.129494,-6.161114 c 0.132466,-0.05085 0.08404,-0.145262 -0.217454,-0.424425 c -0.873313,-0.808537 -3.30845,-2.153221 -3.608519,-1.992628 c -0.23841,0.127592 -0.01884,0.515014 0.486119,0.857661 c 0.703936,0.477681 2.187462,1.241307 2.850036,1.467022 c 0.392625,0.13375 0.385487,0.132407 0.489818,0.09237 l 0,0 z M 38.944249,72.320939 c 1.28604,-0.258706 3.200209,-0.903027 3.520439,-1.185004 c 0.335882,-0.295761 -0.337807,-0.265801 -1.766229,0.07855 c -1.121241,0.270304 -1.893323,0.415127 -2.55588,0.479413 c -0.575829,0.05591 -0.80265,0.166319 -0.822803,0.400623 c -0.0086,0.09994 0.01242,0.190223 0.05186,0.222953 c 0.200342,0.16626 0.757225,0.167485 1.572654,0.0034 l 0,0 z m 7.767139,-4.828913 c 0.189529,-0.755147 -0.91101,-7.213896 -1.596186,-9.36759 c -0.257988,-0.810902 -0.770173,-1.506425 -2.493933,-3.386631 c -2.825204,-3.081604 -5.942748,-5.92223 -6.208211,-5.656767 c -0.17061,0.17061 0.710625,1.18421 3.328832,3.828828 c 2.91917,2.948615 4.067634,4.276296 4.510693,5.21457 c 0.495536,1.049421 1.025289,3.191594 1.711209,6.919715 c 0.333922,1.814982 0.368485,1.975786 0.508873,2.367997 c 0.08227,0.22987 0.191878,0.266544 0.238723,0.0799 z m 2.199067,-5.042871 c 0.126418,-0.329437 -0.874047,-3.703237 -1.602739,-5.404818 C 46.765394,55.777961 46.20857,55.304782 46.44698,56.3129 c 0.157036,0.664026 0.382109,1.276006 0.860685,2.340208 c 0.621034,1.38097 0.844831,1.965008 1.095767,2.859606 c 0.239288,0.853058 0.414695,1.177039 0.507023,0.936441 z" />
    <path inkscape:connector-curvature="0" style="fill:#fea;fill-opacity:1;stroke:none" id="path6451" d="m 52.628643,54.491625 c -0.619986,-0.09076 -0.856301,-0.215199 -0.982584,-0.517438 c -0.287644,-0.688437 0.04992,-4.081149 0.658249,-6.615321 c 0.296209,-1.234019 0.566174,-1.927717 0.867417,-2.228969 c 0.240538,-0.240529 0.361989,-0.209683 0.825987,0.209819 c 0.542625,0.490595 1.035434,0.744073 1.630748,0.838775 c 0.363857,0.05786 1.100168,-0.01968 1.337885,-0.140972 c 0.388908,-0.198407 0.172079,-0.353619 -0.636246,-0.455466 c -0.976596,-0.123048 -1.481643,-0.363831 -2.168898,-1.034015 l -0.481912,-0.469952 l 1.420989,-1.483552 c 2.801604,-2.924939 3.575654,-3.672518 4.5952,-4.438028 c 1.745612,-1.310662 2.926029,-1.409984 4.289388,-0.360901 c 0.835489,0.642894 1.1381,1.279756 0.937624,1.973286 c -0.273623,0.946594 -1.196897,2.079171 -3.996229,4.902161 c -1.60703,1.620613 -2.19699,2.078858 -2.832222,2.199896 c -0.18453,0.03514 -0.381248,0.08841 -0.437146,0.118326 c -0.181641,0.09721 -0.259298,0.403327 -0.305897,1.205841 c -0.07821,1.347429 -0.426047,2.737665 -1.056212,4.221858 c -0.42,0.98919 -0.831942,1.601583 -1.202175,1.787135 c -0.538073,0.26967 -1.67755,0.402634 -2.463966,0.287517 z m 1.986091,-0.70913 c 0.885146,-0.954745 1.319082,-1.604886 1.308989,-1.961157 C 55.910546,51.35767 55.180722,50.679859 54.31301,50.325471 c -0.554248,-0.226356 -1.335064,-0.153007 -1.335064,0.125422 c 0,0.2178 0.420287,0.459039 1.101224,0.63209 c 0.656965,0.166952 0.962372,0.379583 1.03768,0.722459 c 0.07053,0.321092 -0.16561,0.940732 -0.705422,1.851074 c -0.394103,0.664634 -0.443802,0.7585 -0.3901,0.736775 c 0.0239,-0.0096 0.29093,-0.284527 0.593406,-0.610796 l 0,0 z m 1.446033,-6.247267 c 0.324766,-0.09006 0.697322,-0.280794 0.807312,-0.413328 c 0.103139,-0.124272 -0.05119,-0.141207 -0.513612,-0.05634 c -0.525099,0.09637 -0.868693,0.09746 -1.318787,0.0042 C 54.641737,46.98808 54.524635,46.945648 53.766735,46.6098 c -0.80281,-0.355748 -0.941239,-0.302899 -0.488416,0.186489 c 0.310754,0.335831 0.343636,0.364118 0.612773,0.527118 c 0.486254,0.294494 1.510868,0.394542 2.169675,0.211862 l 0,0 z m 7.185811,-8.205223 c 0.062,-0.161505 -0.551511,-0.74018 -1.087666,-1.025948 c -0.312621,-0.166624 -0.619303,-0.19687 -0.7429,-0.07323 c -0.09286,0.09286 -0.09393,0.134324 -0.0076,0.299334 c 0.146192,0.279831 0.571623,0.581065 1.068054,0.756244 c 0.38689,0.136521 0.727198,0.155804 0.770232,0.04367 z" />
    <path inkscape:connector-curvature="0" style="fill:#fea;fill-opacity:1;stroke:none" id="path6453" d="m 58.312667,55.980355 c -0.702905,-0.04527 -0.99049,-0.153067 -1.191634,-0.446623 C 56.784788,55.043018 56.84692,54.387438 57.47673,51.78044 c 0.605543,-2.506569 0.633425,-2.603315 0.896844,-3.111394 c 0.737654,-1.422839 2.787803,-3.566743 4.793219,-5.01243 c 0.662337,-0.477478 1.742596,-1.154039 2.186753,-1.36955 c 0.741556,-0.359819 1.201052,-0.411258 1.958124,-0.219211 c 1.074904,0.272677 1.571902,0.686292 1.839089,1.530557 c 0.159258,0.503231 0.215562,1.080158 0.215714,2.210496 l 1.35e-4,0.997256 l -0.792995,0 c -0.743727,0 -0.793004,-0.0059 -0.793004,-0.09023 c 0,-0.04966 -0.03218,-0.116924 -0.07146,-0.149544 c -0.138716,-0.115126 -0.505258,0.06039 -0.505258,0.24194 c 0,0.176683 -0.447029,0.715651 -1.663707,2.005889 c -1.298093,1.376577 -2.219635,2.663741 -2.975178,4.155579 c -0.509685,1.006386 -0.680759,1.298482 -1.035316,1.767707 c -0.742638,0.982821 -1.673175,1.342319 -3.217018,1.242854 z m 0.963825,-0.613306 c 0.612148,-0.395623 0.944651,-1.034074 0.992796,-1.906288 c 0.0473,-0.856623 -0.158658,-1.258995 -0.702188,-1.371983 c -0.518696,-0.107819 -1.350554,0.02813 -1.350554,0.220697 c 0,0.05152 0.183027,0.163363 0.548226,0.334961 c 0.776085,0.364659 1.085834,0.66727 1.085834,1.06079 c 0,0.256882 -0.129392,0.492496 -0.434199,0.790639 c -0.14864,0.145381 -0.328888,0.343213 -0.400564,0.439621 c -0.13674,0.183922 -0.237633,0.458322 -0.194311,0.528436 c 0.04983,0.08066 0.244398,0.03919 0.45496,-0.09687 l 0,0 z m 2.677661,-5.607448 c 0.218856,-0.09144 0.395606,-0.251882 0.395606,-0.359092 c 0,-0.224119 -0.55331,-0.373376 -1.0715,-0.289038 c -0.347496,0.05659 -0.466439,0.122507 -0.466439,0.258639 c 0,0.122473 0.201364,0.337207 0.384483,0.410016 c 0.183018,0.07272 0.558944,0.06259 0.75785,-0.02052 l 0,0 z m 0.866606,-1.136741 c 0.07973,-0.07973 0.07213,-0.236745 -0.01774,-0.365064 c -0.173177,-0.247253 -0.885332,-0.47714 -1.290086,-0.416444 c -0.417508,0.06259 -0.480223,0.372447 -0.113799,0.562247 c 0.402795,0.208636 1.294715,0.346195 1.421656,0.219261 z m 4.722251,-4.080599 c 0.18132,-0.338804 -0.433261,-1.023085 -0.826511,-0.92025 c -0.233941,0.06115 0.0042,0.537423 0.432433,0.863844 c 0.241079,0.18388 0.319825,0.195147 0.394078,0.05642 z" />
    <path inkscape:connector-curvature="0" style="fill:#fea;fill-opacity:1;stroke:none" id="path6455" d="m 32.11454,46.646297 c -0.116148,-0.08792 -0.681562,-0.490054 -1.256486,-0.893626 C 30.283129,45.3491 29.812729,45.002567 29.812729,44.982608 c 0,-0.01993 0.56772,-0.04941 1.261596,-0.06537 c 0.76649,-0.01765 1.459632,-0.05938 1.76623,-0.106299 c 1.730923,-0.264704 3.488689,-0.882798 4.637846,-1.630833 c 0.4281,-0.278665 0.841055,-0.656568 0.841055,-0.769649 c 0,-0.181269 -0.399669,-0.05279 -1.634059,0.525259 c -0.43615,0.204253 -0.922758,0.421132 -1.081357,0.481972 c -0.158608,0.06081 -0.331625,0.127296 -0.384491,0.147686 c -0.08981,0.03463 -0.09114,0.031 -0.02019,-0.05515 c 0.299198,-0.363459 1.12304,-1.867739 1.966934,-3.591457 c 1.088334,-2.223031 1.846403,-3.968524 2.887411,-6.648449 c 1.034944,-2.664298 1.512963,-3.803851 2.386157,-5.688323 c 0.68891,-1.486778 1.014673,-2.318804 1.607124,-4.104739 c 0.600492,-1.81016 0.993319,-2.830762 1.806704,-4.694015 c 0.675582,-1.547602 0.896743,-2.125905 0.972246,-2.542281 c 0.196304,-1.082532 2.032741,-4.345067 2.873171,-5.104344 c 0.445196,-0.402203 1.386671,-0.704907 1.981183,-0.636981 c 1.711911,0.195578 2.321694,1.488991 1.822492,3.865697 c -0.188576,0.897807 -0.289646,1.19872 -1.065318,3.171719 c -0.316894,0.806062 -0.841064,2.265905 -1.164816,3.244088 c -0.323753,0.978192 -1.189531,3.541142 -1.923959,5.695461 c -2.903139,8.515891 -3.490936,10.471583 -3.502904,11.654694 c -0.0059,0.595247 0.05389,0.775072 0.360165,1.081366 c 0.420616,0.420617 0.630367,0.381096 1.227193,-0.231188 c 1.23907,-1.271166 2.64836,-3.45166 4.836093,-7.482535 c 1.131833,-2.085396 2.039194,-3.853433 4.513675,-8.795089 c 3.620538,-7.230384 5.425005,-10.599311 6.273949,-11.713398 c 0.623746,-0.818563 1.875569,-1.3908944 2.731837,-1.2490109 c 0.893153,0.1479988 1.530539,0.7760099 1.705997,1.6808869 c 0.07146,0.368611 0.03624,1.124552 -0.07112,1.525218 c -0.293767,1.096662 -0.968022,2.791063 -3.031297,7.617603 c -2.326685,5.442759 -3.498825,8.452247 -5.166366,13.264724 c -0.862391,2.488823 -1.201356,3.365489 -1.640132,4.241901 c -0.518519,1.035671 -0.912234,1.548066 -2.686175,3.495861 c -1.664297,1.827407 -2.187107,2.500885 -2.63341,3.392323 c -0.205265,0.41 -0.483948,1.17067 -0.58397,1.593964 l -0.05963,0.252313 l -9.648477,0 l -9.648476,0 l -0.21117,-0.159866 l 0,0 z m 2.997122,-0.254018 c 0.161167,-0.113276 0.204007,-0.173043 0.204007,-0.284629 c 0,-0.21443 -0.187832,-0.286723 -0.744935,-0.286723 c -0.534077,0 -0.736547,0.07256 -0.759707,0.272153 c -0.01132,0.09716 0.02314,0.156209 0.145616,0.249601 c 0.241088,0.183888 0.370504,0.22373 0.674416,0.207631 c 0.214455,-0.01132 0.322426,-0.04688 0.480603,-0.158033 z m 16.872407,-4.848518 c 0.314495,-0.08193 0.657447,-0.244626 0.657447,-0.31191 c 0,-0.09841 -0.216458,-0.150795 -0.638983,-0.154638 c -0.572425,-0.0051 -0.850896,0.109711 -0.850896,0.351144 c 0,0.185451 0.367759,0.236434 0.832432,0.115404 z m 1.359879,-0.946391 c 0.03995,-0.0647 -0.318997,-0.403749 -0.786517,-0.742815 c -0.360832,-0.261688 -1.019107,-0.539247 -1.409916,-0.594487 c -0.267837,-0.03784 -0.797877,0.0042 -0.907318,0.07163 c -0.17974,0.111088 0.137255,0.368511 0.761381,0.618315 c 0.234059,0.09368 0.779894,0.277389 1.212978,0.408242 c 1.085893,0.328102 1.075732,0.325957 1.129392,0.239127 l 0,0 z m -9.185366,-1.817237 c 0.07424,-0.02821 0.112507,-0.07011 0.09295,-0.101721 c -0.09294,-0.150381 -1.485621,-0.66009 -2.15186,-0.787564 c -0.642328,-0.122896 -1.055258,-0.07256 -1.134976,0.13826 c -0.123825,0.327528 0.40391,0.533942 1.728272,0.675986 c 1.211441,0.129932 1.308212,0.13489 1.465611,0.075 z m 1.153693,-1.153541 c 0,-0.106645 -0.081,-0.161065 -0.720905,-0.484125 c -0.649456,-0.3279 -1.924313,-0.85544 -2.619304,-1.083883 c -0.351128,-0.115412 -0.880256,-0.119551 -0.992053,-0.0076 c -0.124813,0.124822 -0.02255,0.293168 0.306116,0.503856 c 0.717425,0.459918 3.084974,1.220504 3.737784,1.200774 c 0.273226,-0.0084 0.288362,-0.01503 0.288362,-0.128868 z m 12.315528,-5.316958 c 0.161826,-0.04333 0.132238,-0.133876 -0.112008,-0.342647 c -0.579697,-0.495511 -1.186279,-0.732451 -1.875096,-0.732451 c -0.417356,0 -0.45197,0.0076 -0.45197,0.09451 c 0,0.119222 0.534222,0.530201 0.942439,0.725027 c 0.489801,0.233755 1.154478,0.347259 1.496635,0.255564 z m 0.06005,-1.582029 c 0,-0.385673 -1.5966,-1.416039 -2.220032,-1.432704 c -0.22139,-0.0059 -0.256916,0.0059 -0.268902,0.08954 c -0.03531,0.246112 0.426901,0.639371 1.240607,1.055595 c 0.64797,0.331439 0.833893,0.40222 1.068096,0.406621 c 0.161986,0.0034 0.180231,-0.009 0.180231,-0.119053 l 0,0 z M 46.605266,28.960979 c 0.360436,-0.263563 -0.577425,-0.827618 -1.318314,-0.792886 c -0.280768,0.01318 -0.31262,0.02517 -0.326472,0.122643 c -0.02297,0.161851 0.170703,0.396164 0.419434,0.507403 c 0.461278,0.206297 1.057555,0.285533 1.225352,0.16284 l 0,0 z m 0.547753,-0.909751 c 0.01242,-0.189082 -0.0068,-0.244288 -0.136537,-0.392059 C 46.55365,27.132034 44.978488,26.483634 44.590365,26.660477 c -0.233342,0.106316 -0.09738,0.324336 0.397676,0.637699 c 0.362995,0.229769 2.027757,1.012519 2.102457,0.988539 c 0.02644,-0.0084 0.05456,-0.114458 0.0625,-0.235487 l 0,0 z m 15.696973,-8.320761 c 0.04156,-0.221695 0.01368,-0.271968 -0.24852,-0.447646 c -0.26385,-0.176775 -0.520175,-0.255032 -0.836545,-0.255412 c -0.306868,-3.72e-4 -0.3764,0.03463 -0.3764,0.189665 c 0,0.218746 0.185417,0.337259 0.841056,0.537558 c 0.565321,0.172713 0.583608,0.171995 0.620409,-0.02416 l 0,0 z M 49.795221,19.480992 c 0.136867,-0.09587 0.140203,-0.314563 0.01005,-0.656306 c -0.288058,-0.75611 -0.846403,-1.092608 -1.815988,-1.094432 c -0.449554,-8.45e-4 -0.659186,0.07593 -0.732282,0.268183 c -0.148193,0.389761 0.661737,1.05046 1.764971,1.439799 c 0.380859,0.1344 0.623306,0.147805 0.77329,0.04274 z m 12.75613,-1.462267 c 0.0712,-0.03404 0.142018,-0.0945 0.157281,-0.13429 c 0.04527,-0.117912 -0.110969,-0.300888 -0.350933,-0.41103 c -0.31001,-0.142289 -0.922792,-0.146934 -1.151378,-0.0087 c -0.313938,0.189809 -0.235074,0.444985 0.178515,0.577586 c 0.262263,0.08413 0.971385,0.06977 1.166515,-0.02357 l 0,0 z" />
    <path inkscape:connector-curvature="0" style="fill:#fea;fill-opacity:1;stroke:none" id="path6457" d="m 17.648662,46.38564 c -0.76143,-0.910925 -1.399433,-1.608838 -2.181718,-2.386571 C 14.679042,43.215737 14.295716,42.878951 12.983213,41.816886 C 11.18743,40.363758 10.911281,39.577317 11.911662,38.765233 c 0.369018,-0.299553 1.14784,-0.680455 1.608526,-0.786686 c 0.674821,-0.155609 3.123448,-0.09135 4.133213,0.10847 c 1.012299,0.200316 2.058586,1.080749 3.052886,2.568946 c 0.63905,0.956485 1.036346,1.840997 1.370108,3.050293 c 0.237581,0.860829 0.504109,1.445239 0.789067,1.730205 c 0.496398,0.49639 0.551207,0.382481 0.252414,-0.524558 c -0.264771,-0.803756 -0.368375,-1.227109 -0.369338,-1.509179 c -7.1e-4,-0.206414 0.06386,-0.387515 0.160508,-0.450322 c 0.07771,-0.05051 0.308743,0.107565 0.432931,0.296276 c 0.20595,0.312949 0.252946,0.4076 0.459935,0.926365 c 0.231509,0.580229 0.437298,0.900941 0.578101,0.900941 c 0.147078,0 0.163219,-0.250564 0.05262,-0.817026 c -0.05423,-0.27755 -0.09859,-0.609715 -0.09867,-0.738135 c -1.44e-4,-0.230031 0.0017,-0.233055 0.132018,-0.203315 c 0.240521,0.0549 1.607926,0.749834 2.5207,1.280981 c 0.692297,0.402853 2.373985,1.43914 3.498893,2.156084 c 0.04603,0.02939 -2.194144,0.04696 -6.206657,0.04874 l -6.278747,0.0025 l -0.351516,-0.420524 z" />
  </g>
</svg>
